<svg xmlns="http://www.w3.org/2000/svg" viewBox="0 0 1505 1080"><defs><style>.cls-1{fill:#ddd;}.cls-1,.cls-5,.cls-6,.cls-7,.cls-9{fill-rule:evenodd;}.cls-2{fill:#fff;}.cls-12,.cls-16,.cls-22,.cls-26,.cls-3,.cls-30,.cls-48,.cls-54,.cls-60,.cls-69,.cls-8{isolation:isolate;}.cls-3{font-size:41.64px;}.cls-12,.cls-15,.cls-24,.cls-29,.cls-3,.cls-32,.cls-33,.cls-38,.cls-49,.cls-50,.cls-55,.cls-57,.cls-60,.cls-70{fill:#333;}.cls-12,.cls-3,.cls-60{font-family:Arial-BoldMT, Arial;font-weight:700;}.cls-4{letter-spacing:-0.04em;}.cls-11,.cls-5,.cls-61{fill:#e3f2fd;}.cls-11,.cls-5,.cls-62{stroke:#2196f3;}.cls-11,.cls-5,.cls-58,.cls-62,.cls-65,.cls-67{stroke-width:2px;}.cls-20,.cls-6{fill:#e8f5e8;stroke:#4caf50;}.cls-47,.cls-7{fill:#ffe0b2;}.cls-47,.cls-65,.cls-7{stroke:#f57c00;}.cls-8{font-size:20.82px;}.cls-14,.cls-15,.cls-16,.cls-22,.cls-24,.cls-26,.cls-29,.cls-30,.cls-32,.cls-33,.cls-38,.cls-48,.cls-49,.cls-50,.cls-54,.cls-55,.cls-57,.cls-8{font-family:ArialMT, Arial;}.cls-51,.cls-9{fill:#f3e5f5;}.cls-51,.cls-67,.cls-9{stroke:#9c27b0;}.cls-10{letter-spacing:-0.06em;}.cls-12{font-size:14.31px;}.cls-13{fill:#bbdefb;stroke:#1976d2;}.cls-14,.cls-15,.cls-16{font-size:10.41px;}.cls-14,.cls-16,.cls-22,.cls-26,.cls-30,.cls-48,.cls-54{fill:#666;}.cls-17{letter-spacing:-0.02em;}.cls-18{letter-spacing:-0.11em;}.cls-19{letter-spacing:0em;}.cls-21{fill:#c8e6c9;}.cls-21,.cls-43,.cls-58{stroke:#388e3c;}.cls-22{font-size:10.35px;}.cls-23{letter-spacing:-0.02em;}.cls-24{font-size:8.63px;}.cls-25{letter-spacing:-0.07em;}.cls-26{font-size:11.23px;}.cls-27{letter-spacing:-0.02em;}.cls-28{letter-spacing:0em;}.cls-29{font-size:9.36px;}.cls-30{font-size:11.45px;}.cls-31{letter-spacing:-0.02em;}.cls-32{font-size:9.54px;}.cls-33{font-size:10.62px;}.cls-34{letter-spacing:-0.02em;}.cls-35{letter-spacing:0em;}.cls-36{letter-spacing:-0.06em;}.cls-37{letter-spacing:-0.02em;}.cls-38{font-size:8.68px;}.cls-39{letter-spacing:-0.06em;}.cls-40{letter-spacing:-0.06em;}.cls-41{letter-spacing:-0.02em;}.cls-42{font-size:10.88px;}.cls-43,.cls-58,.cls-62,.cls-65,.cls-67{fill:none;}.cls-44{fill:#fff3e0;stroke:#ff9800;}.cls-45{letter-spacing:-0.02em;}.cls-46{letter-spacing:0em;}.cls-48{font-size:13.22px;}.cls-49{font-size:11.02px;}.cls-50{font-size:13.22px;letter-spacing:0em;}.cls-52{letter-spacing:-0.02em;}.cls-53{letter-spacing:-0.11em;}.cls-54{font-size:14.25px;}.cls-55{font-size:11.87px;}.cls-56{letter-spacing:-0.02em;}.cls-57{font-size:11.21px;letter-spacing:0em;}.cls-59{fill:#388e3c;}.cls-60{font-size:11.71px;}.cls-63{fill:#2196f3;}.cls-64{letter-spacing:-0.04em;}.cls-66{fill:#f57c00;}.cls-68{fill:#9c27b0;}.cls-71{letter-spacing:-0.06em;}</style></defs><title>Element 62</title><g id="Ebene_2" data-name="Ebene 2"><g id="Ebene_1-2" data-name="Ebene 1"><path id="Frame" class="cls-1" d="M30.22,155.33H1469.5c5.75,0,10.41,4.07,10.41,9.09v893.49c0,5-4.66,9.09-10.41,9.09H30.22c-5.75,0-10.41-4.07-10.41-9.09V164.42c0-5,4.66-9.09,10.41-9.09m0,1.13H1469.5c5,0,9.11,3.57,9.11,8v893.49c0,4.39-4.07,7.95-9.11,7.95H30.22c-5,0-9.11-3.56-9.11-7.95V164.42c0-4.39,4.08-8,9.11-8"/><rect class="cls-2" x="0.5" y="0.5" width="1504" height="1079"/><path d="M1504,1V1079H1V1H1504m1-1H0V1080H1505V0Z"/><text id="Heading" class="cls-3" transform="translate(212.41 53.82)">Flask GeoPixel<tspan class="cls-4" x="296.28" y="0"> </tspan><tspan x="306.3" y="0">Application - Communication Diagram</tspan></text><path class="cls-5" d="M415.42,103.27H431a5.21,5.21,0,0,1,5.21,5.21v15.61A5.21,5.21,0,0,1,431,129.3H415.42a5.21,5.21,0,0,1-5.21-5.21V108.48a5.21,5.21,0,0,1,5.21-5.21"/><path class="cls-6" d="M590.23,103.27h15.62a5.2,5.2,0,0,1,5.2,5.21v15.61a5.2,5.2,0,0,1-5.2,5.21H590.23a5.2,5.2,0,0,1-5.2-5.21V108.48a5.2,5.2,0,0,1,5.2-5.21"/><path class="cls-7" d="M779.36,103.27H795a5.2,5.2,0,0,1,5.2,5.21v15.61a5.2,5.2,0,0,1-5.2,5.21H779.36a5.21,5.21,0,0,1-5.21-5.21V108.48a5.21,5.21,0,0,1,5.21-5.21"/><text class="cls-8" transform="translate(997.55 124.09)">Data Storage</text><path class="cls-9" d="M975,103.27h15.62a5.21,5.21,0,0,1,5.21,5.21v15.61a5.21,5.21,0,0,1-5.21,5.21H975a5.2,5.2,0,0,1-5.2-5.21V108.48a5.2,5.2,0,0,1,5.2-5.21"/><text class="cls-8" transform="translate(439.71 124.09)">Frontend Layer</text><text class="cls-8" transform="translate(614.52 124.09)">Flask<tspan class="cls-10" x="49.75" y="0"> </tspan><tspan x="54.38" y="0">Application</tspan></text><text class="cls-8" transform="translate(803.65 124.09)">External Services</text><path class="cls-11" d="M81.49,312.79H1418.23a8.33,8.33,0,0,1,8.33,8.33v139.5a8.33,8.33,0,0,1-8.33,8.33H81.49a8.32,8.32,0,0,1-8.32-8.33V321.12a8.32,8.32,0,0,1,8.32-8.33"/><text class="cls-12" transform="translate(1449.03 498.96) rotate(-90)">WEB BROWSER / FRONTEND</text><path class="cls-13" d="M294.9,354.43H451.63a3.94,3.94,0,0,1,3.65,4.17v74.95a3.94,3.94,0,0,1-3.65,4.17H294.9a3.93,3.93,0,0,1-3.64-4.17V358.6a3.93,3.93,0,0,1,3.64-4.17"/><text class="cls-14" transform="translate(304.95 372.35) scale(1.07 1)">Map window</text><text class="cls-15" transform="translate(304.95 384.85)"><tspan xml:space="preserve">• Either OpenLayers map      </tspan><tspan x="0" y="12.49" xml:space="preserve">    or disy Cadenza via iframe</tspan><tspan x="0" y="24.99">• Interactive map features</tspan><tspan x="0" y="37.48">• Baselayer switching</tspan></text><path class="cls-13" d="M529.75,354.43H708.81A4.17,4.17,0,0,1,713,358.6v74.95a4.17,4.17,0,0,1-4.17,4.17H529.75a4.17,4.17,0,0,1-4.17-4.17V358.6a4.17,4.17,0,0,1,4.17-4.17"/><text class="cls-16" transform="translate(539.78 376.63) scale(1.07 1)">Image resolution control</text><text class="cls-15" transform="translate(539.78 389.12)">• Image tiling<tspan x="0" y="12.49">• Image upscaling</tspan><tspan x="0" y="24.99">• Multi-scale feature fusion</tspan></text><path class="cls-13" d="M88.23,354.43H232.47c1.85,0,3.36,1.87,3.36,4.17v74.95c0,2.3-1.51,4.17-3.36,4.17H88.23c-1.85,0-3.35-1.87-3.35-4.17V358.6c0-2.3,1.5-4.17,3.35-4.17"/><text class="cls-16" transform="translate(104.48 372.96) scale(1.07 1)">Runpod Control Center</text><text class="cls-15" transform="translate(104.48 385.46)">• Start and stop pods<tspan x="0" y="12.49">•</tspan><tspan class="cls-17" x="3.64" y="12.49"> </tspan><tspan class="cls-18" x="6.35" y="12.49">T</tspan><tspan class="cls-19" x="11.55" y="12.49">est pod connections</tspan><tspan x="0" y="24.99">• Enables and disables </tspan><tspan x="0" y="37.48" xml:space="preserve">    data processing</tspan></text><path class="cls-13" d="M784.86,354.43h136c1.75,0,3.16,1.87,3.16,4.17v74.95c0,2.3-1.41,4.17-3.16,4.17h-136c-1.75,0-3.17-1.87-3.17-4.17V358.6c0-2.3,1.42-4.17,3.17-4.17"/><text class="cls-14" transform="translate(801.65 371.27) scale(1.07 1)">Query buttons</text><text class="cls-15" transform="translate(801.65 383.76)">• Start GeoPixel query via <tspan x="0" y="12.49" xml:space="preserve">   premade queries</tspan><tspan x="0" y="24.99">• Start GeoPixel query via</tspan><tspan x="0" y="37.48" xml:space="preserve">   freeform queries</tspan></text><path class="cls-13" d="M1008.91,354.43H1145c1.74,0,3.16,1.87,3.16,4.17v74.95c0,2.3-1.42,4.17-3.16,4.17H1008.91c-1.75,0-3.16-1.87-3.16-4.17V358.6c0-2.3,1.41-4.17,3.16-4.17"/><text class="cls-14" transform="translate(1025.71 371.27) scale(1.07 1)">Object menus</text><text class="cls-15" transform="translate(1025.71 383.76)">• Drop-up to select object <tspan x="0" y="12.49" xml:space="preserve">   class</tspan><tspan x="0" y="24.99">• Drop-up to select object </tspan><tspan x="0" y="37.48" xml:space="preserve">   color</tspan></text><path class="cls-13" d="M1227.83,354.43h136c1.75,0,3.16,1.87,3.16,4.17v74.95c0,2.3-1.41,4.17-3.16,4.17h-136c-1.75,0-3.17-1.87-3.17-4.17V358.6c0-2.3,1.42-4.17,3.17-4.17"/><text class="cls-14" transform="translate(1244.62 371.27) scale(1.07 1)">Layer Statistics</text><text class="cls-15" transform="translate(1244.62 383.76)">• Layers shown in map<tspan x="0" y="12.49">• Object count per layer</tspan><tspan x="0" y="24.99">• Reordering of layers</tspan><tspan x="0" y="37.48">• Overlap calculation</tspan></text><g id="Ebene_2-2" data-name="Ebene 2"><text class="cls-12" transform="translate(1449.03 712.96) rotate(-90)">BACKEND</text><path class="cls-20" d="M80.19,521H1416.93a8.33,8.33,0,0,1,8.33,8.33V825a8.33,8.33,0,0,1-8.33,8.32H80.19A8.33,8.33,0,0,1,71.86,825V529.33A8.33,8.33,0,0,1,80.19,521"/></g><path class="cls-21" d="M289.33,570.45H427c2.71,0,4.91,2.49,4.91,5.56v72.18c0,3.06-2.2,5.55-4.91,5.55H289.33c-2.71,0-4.91-2.49-4.91-5.55V576c0-3.07,2.2-5.56,4.91-5.56"/><text class="cls-22" transform="translate(290.97 589.26) scale(1.08 1)">POS<tspan class="cls-23" x="21.86" y="0">T</tspan><tspan x="28" y="0" xml:space="preserve"> /receive</tspan></text><text class="cls-24" transform="translate(290.97 599.61) scale(1.1 1)"><tspan xml:space="preserve"> • Receives formData with </tspan><tspan x="0" y="10.35" xml:space="preserve">    image, extent, quer</tspan><tspan class="cls-25" x="83.43" y="10.35">y</tspan><tspan x="87.11" y="10.35">, settings</tspan><tspan x="0" y="20.7" xml:space="preserve"> • Calls GeoPixelAPI</tspan><tspan x="0" y="31.06" xml:space="preserve"> • Processes results</tspan><tspan x="0" y="41.41" xml:space="preserve"> • Generates outlines</tspan></text><path class="cls-21" d="M479.44,580.86H637.69a4.17,4.17,0,0,1,4.16,4.17v54.13a4.17,4.17,0,0,1-4.16,4.17H479.44a4.17,4.17,0,0,1-4.16-4.17V585a4.17,4.17,0,0,1,4.16-4.17"/><text class="cls-22" transform="translate(499.51 599.61) scale(1.08 1)">POS<tspan class="cls-23" x="21.86" y="0">T</tspan><tspan x="28" y="0" xml:space="preserve"> /insert_geometry</tspan></text><text class="cls-24" transform="translate(499.51 609.96) scale(1.1 1)">• Inserts geometries into <tspan x="0" y="10.35" xml:space="preserve">   postGIS database </tspan><tspan x="0" y="20.7" xml:space="preserve">    if map source is Cadenza</tspan></text><path class="cls-21" d="M690.28,580.86H827.7a4.17,4.17,0,0,1,4.17,4.17v54.13a4.17,4.17,0,0,1-4.17,4.17H690.28a4.17,4.17,0,0,1-4.16-4.17V585a4.17,4.17,0,0,1,4.16-4.17"/><text class="cls-26" transform="translate(690.56 604.17) scale(1.08 1)">GE<tspan class="cls-27" x="16.22" y="0">T</tspan><tspan class="cls-28" x="22.88" y="0" xml:space="preserve"> /get_layer_stats</tspan></text><text class="cls-29" transform="translate(690.56 615.39) scale(1.1 1)"><tspan xml:space="preserve"> • Returns layer statistics from </tspan><tspan x="0" y="11.23" xml:space="preserve">     postGIS database </tspan></text><path class="cls-21" d="M881.32,580.25h170c3.35,0,6.07,1.87,6.07,4.17v54.13c0,2.3-2.72,4.17-6.07,4.17h-170c-3.35,0-6.07-1.87-6.07-4.17V584.42c0-2.3,2.72-4.17,6.07-4.17"/><text class="cls-30" transform="translate(882.97 597.46) scale(1.07 1)">POS<tspan class="cls-31" x="24.18" y="0">T</tspan><tspan x="30.97" y="0" xml:space="preserve"> /fetch_area_intersection</tspan></text><text class="cls-32" transform="translate(882.97 608.91) scale(1.09 1)">• Returns layer overlap<tspan x="0" y="11.45" xml:space="preserve">    calculatedby postGIS</tspan><tspan x="0" y="24.19" xml:space="preserve">    database</tspan></text><text class="cls-33" transform="translate(937.54 633.11) scale(0.99 1)"> </text><path class="cls-21" d="M1106,580.86h146.2c2.88,0,5.22,1.87,5.22,4.17v54.13c0,2.3-2.34,4.17-5.22,4.17H1106c-2.88,0-5.22-1.87-5.22-4.17V585c0-2.3,2.34-4.17,5.22-4.17"/><text class="cls-30" transform="translate(1105.32 598.07) scale(1.07 1)">GE<tspan class="cls-34" x="16.54" y="0">T</tspan><tspan class="cls-35" x="23.33" y="0" xml:space="preserve"> /overlay_images/&lt;file&gt;</tspan></text><text class="cls-32" transform="translate(1105.32 609.52) scale(1.09 1)">•<tspan class="cls-36" x="3.34" y="0"> </tspan><tspan x="5.47" y="0">Applies masks to </tspan><tspan x="0" y="11.45" xml:space="preserve">   original image</tspan></text><path class="cls-21" d="M1304.4,580.86h100c2,0,3.57,1.87,3.57,4.17v54.13c0,2.3-1.6,4.17-3.57,4.17h-100c-2,0-3.57-1.87-3.57-4.17V585c0-2.3,1.6-4.17,3.57-4.17"/><text class="cls-30" transform="translate(1305.71 599.11) scale(1.07 1)">GE<tspan class="cls-34" x="16.54" y="0">T</tspan><tspan class="cls-35" x="23.33" y="0" xml:space="preserve"> /health</tspan></text><text class="cls-32" transform="translate(1305.71 610.56) scale(1.09 1)"><tspan xml:space="preserve"> • Returns application </tspan><tspan x="0" y="11.45" xml:space="preserve">     status</tspan></text><path class="cls-21" d="M93.55,723.06H215a4.2,4.2,0,0,1,4.34,4.05v52.63a4.2,4.2,0,0,1-4.34,4H93.55a4.2,4.2,0,0,1-4.33-4V727.11a4.2,4.2,0,0,1,4.33-4.05"/><text class="cls-16" transform="translate(103.24 740.86) scale(1.07 1)">POS<tspan class="cls-37" x="21.99" y="0">T</tspan><tspan x="28.16" y="0" xml:space="preserve"> /runpod-proxy</tspan></text><text class="cls-38" transform="translate(103.24 751.28) scale(1.1 1)">• Checks if pod with <tspan x="0" y="10.41" xml:space="preserve">   specified template </tspan><tspan x="0" y="20.82" xml:space="preserve">   is running </tspan></text><path class="cls-21" d="M93.55,570.48H215a4.2,4.2,0,0,1,4.34,4v52.64a4.2,4.2,0,0,1-4.34,4H93.55a4.19,4.19,0,0,1-4.33-4V574.52a4.19,4.19,0,0,1,4.33-4"/><text class="cls-16" transform="translate(104.48 588.28) scale(1.07 1)">POS<tspan class="cls-37" x="21.99" y="0">T</tspan><tspan x="28.16" y="0" xml:space="preserve"> /check-health</tspan></text><text class="cls-38" transform="translate(104.48 598.69) scale(1.1 1)">• Keeps<tspan class="cls-39" x="30.05" y="0"> </tspan><tspan x="31.98" y="0">API keys </tspan><tspan x="0" y="10.41" xml:space="preserve">   server-side</tspan><tspan x="0" y="20.82">•</tspan><tspan class="cls-40" x="3.04" y="20.82"> </tspan><tspan class="cls-41" x="4.97" y="20.82">A</tspan><tspan x="10.6" y="20.82">voids CORS issues</tspan></text><path class="cls-21" d="M93.55,645.93H215a4.2,4.2,0,0,1,4.34,4.05v52.63a4.2,4.2,0,0,1-4.34,4H93.55a4.2,4.2,0,0,1-4.33-4V650a4.2,4.2,0,0,1,4.33-4.05"/><text class="cls-16" transform="translate(97.67 668.19)">POS<tspan class="cls-17" x="21.99" y="0">T</tspan><tspan x="28.16" y="0" xml:space="preserve"> /check-pod-status</tspan></text><text class="cls-38" transform="translate(97.67 678.6) scale(1.03 1)">• Checks if pod with specified <tspan x="0" y="13.06" xml:space="preserve">    template is running</tspan><tspan class="cls-42" x="82.94" y="13.06"> </tspan></text><path class="cls-43" d="M89.5,564.45H219.06c2.56,0,4.63,6.73,4.63,15V775c0,8.31-2.07,15-4.63,15H89.5c-2.55,0-4.62-6.73-4.62-15V579.48c0-8.3,2.07-15,4.62-15"/><path class="cls-44" d="M76.19,885.38H1412.92a8.33,8.33,0,0,1,8.33,8.33v139.5a8.33,8.33,0,0,1-8.33,8.33H76.19a8.33,8.33,0,0,1-8.33-8.33V893.71a8.33,8.33,0,0,1,8.33-8.33"/><text class="cls-12" transform="translate(1449.03 1041.54) rotate(-90)">EXTERNA<tspan class="cls-45" x="68.4" y="0">L</tspan><tspan class="cls-46" x="76.89" y="0" xml:space="preserve"> SE</tspan><tspan class="cls-45" x="99.96" y="0">R</tspan><tspan x="110.04" y="0">VICES</tspan></text><g id="Runpod"><path class="cls-47" d="M158.45,921.81H358.33A4.17,4.17,0,0,1,362.5,926v75a4.17,4.17,0,0,1-4.17,4.16H158.45a4.17,4.17,0,0,1-4.17-4.16V926a4.17,4.17,0,0,1,4.17-4.17"/><text class="cls-48" transform="translate(169.43 939.95)">RunPod.io</text><text class="cls-49" transform="translate(169.43 953.17) scale(1.03 1)">• GeoPixel model in Flask application<tspan x="0" y="13.22">• Flask application is in Docker </tspan><tspan x="0" y="26.45" xml:space="preserve">   hosted on runpod.io</tspan><tspan x="0" y="42.32">• Port 5000 is exposed</tspan></text><text class="cls-50" transform="translate(282.78 995.49)"> </text></g><g id="Internal"><path class="cls-51" d="M436.07,921.81H636a4.17,4.17,0,0,1,4.17,4.17v75a4.17,4.17,0,0,1-4.17,4.16H436.07a4.17,4.17,0,0,1-4.17-4.16V926a4.17,4.17,0,0,1,4.17-4.17"/><text class="cls-48" transform="translate(447.66 939.95)">Internal Storage</text><text class="cls-49" transform="translate(447.66 953.17) scale(1.03 1)">•<tspan class="cls-52" x="3.86" y="0"> </tspan><tspan class="cls-53" x="6.72" y="0">T</tspan><tspan x="12.23" y="0">emporary image </tspan><tspan x="0" y="13.22" xml:space="preserve">   tiles for processing</tspan><tspan x="0" y="26.45">• Image overlays</tspan><tspan x="0" y="39.67">• ./app</tspan></text></g><g id="PostGIS"><path class="cls-51" d="M763.16,921.81H963a4.17,4.17,0,0,1,4.17,4.17v75a4.17,4.17,0,0,1-4.17,4.16H763.16a4.17,4.17,0,0,1-4.17-4.16V926a4.17,4.17,0,0,1,4.17-4.17"/><text class="cls-48" transform="translate(778.74 939.95)">PostGIS Database</text><text class="cls-49" transform="translate(778.74 953.17) scale(1.03 1)">• Spatial Data Storage<tspan x="0" y="13.22">• Geometry Operations</tspan><tspan x="0" y="26.45">• Host: 127.0.0.1:5433</tspan></text></g><g id="Cadenza"><path class="cls-47" d="M1109.48,921.81h199.89a4.17,4.17,0,0,1,4.16,4.17v75a4.16,4.16,0,0,1-4.16,4.16H1109.48a4.16,4.16,0,0,1-4.16-4.16V926a4.17,4.17,0,0,1,4.16-4.17"/><text class="cls-54" transform="translate(1126.33 947.84)">disy Cadenza</text><text class="cls-55" transform="translate(1126.33 962.09) scale(1.03 1)">• <tspan class="cls-56" x="7.45" y="0">W</tspan><tspan x="18.44" y="0">orkbook with embedding</tspan><tspan x="0" y="14.25">• Repository</tspan><tspan x="0" y="28.49">• localhost:8080</tspan></text><text class="cls-57" transform="translate(1212.55 990.58)"> </text></g><line class="cls-58" x1="147.61" y1="468.95" x2="147.61" y2="555.15"/><polygon class="cls-59" points="147.61 563.63 142.73 551.69 147.61 554.52 152.48 551.69 147.61 563.63"/><text class="cls-60" transform="translate(137.41 560.48) rotate(-90)">3.1: POST Request</text><text class="cls-60" transform="translate(175.01 560.47) rotate(-90)">3.3: JSON Response</text><line class="cls-61" x1="186.38" y1="563.63" x2="186.38" y2="468.95"/><line class="cls-62" x1="186.38" y1="563.63" x2="186.38" y2="477.42"/><polygon class="cls-63" points="186.38 468.95 191.26 480.89 186.38 478.06 181.5 480.89 186.38 468.95"/><text class="cls-60" transform="translate(167.32 891.52) rotate(-90)">3.2: Calls<tspan class="cls-64" x="51.43" y="0"> </tspan><tspan x="54.25" y="0">API</tspan></text><line class="cls-65" x1="172.07" y1="790.01" x2="172.07" y2="913.86"/><polygon class="cls-66" points="172.07 922.33 167.19 910.39 172.07 913.22 176.95 910.39 172.07 922.33"/><text class="cls-60" transform="translate(1121.23 577.72) rotate(-90)">2.1: POST Request</text><line class="cls-58" x1="1131.43" y1="468.95" x2="1131.43" y2="572.39"/><polygon class="cls-59" points="1131.43 580.86 1126.55 568.92 1131.43 571.76 1136.31 568.92 1131.43 580.86"/><text class="cls-60" transform="translate(1162.63 822.07) rotate(-90)">2.2: Database query</text><line class="cls-67" x1="1168.6" y1="642.72" x2="1169.84" y2="913.71"/><polygon class="cls-68" points="1169.88 922.19 1164.94 910.27 1169.83 913.08 1174.7 910.23 1169.88 922.19"/><text class="cls-60" transform="translate(1156.94 577.38) rotate(-90)">2.3: JSON Response</text><line class="cls-61" x1="1168.32" y1="580.86" x2="1168.32" y2="468.95"/><line class="cls-62" x1="1168.32" y1="580.86" x2="1168.32" y2="477.42"/><polygon class="cls-63" points="1168.32 468.95 1173.19 480.89 1168.32 478.06 1163.44 480.89 1168.32 468.95"/><line class="cls-58" x1="324.33" y1="468.95" x2="324.33" y2="562"/><polygon class="cls-59" points="324.33 570.48 319.45 558.54 324.33 561.37 329.21 558.54 324.33 570.48"/><text class="cls-60" transform="translate(314.15 569.07) rotate(-90)">1.1: POST Request</text><text class="cls-60" transform="translate(373.18 783.79) rotate(-90)">1.2: Saves Image</text><polyline class="cls-67" points="379.48 653.74 379.48 790.09 438.51 790.09 438.51 913.34"/><polygon class="cls-68" points="438.51 921.82 433.63 909.88 438.51 912.71 443.39 909.88 438.51 921.82"/><text class="cls-60" transform="translate(317.52 766.53) rotate(-90)">1.3: Calls<tspan class="cls-64" x="51.43" y="0"> </tspan><tspan x="54.25" y="0">API</tspan></text><line class="cls-65" x1="324.33" y1="653.55" x2="324.33" y2="913.34"/><polygon class="cls-66" points="324.33 921.82 319.45 909.88 324.33 912.71 329.21 909.88 324.33 921.82"/><text class="cls-60" transform="translate(341.38 874.7) rotate(-90)">1.4: Returns segmentation Masks</text><line class="cls-58" x1="348.19" y1="663.05" x2="348.19" y2="921.81"/><polygon class="cls-59" points="348.19 654.58 343.31 666.52 348.19 663.68 353.06 666.52 348.19 654.58"/><text class="cls-60" transform="translate(408.99 770.3) rotate(-90)">1.5: Deletes Image</text><polyline class="cls-67" points="416.54 654.88 416.54 778.42 478.78 778.42 478.78 913.04"/><polygon class="cls-68" points="478.78 921.52 473.9 909.58 478.78 912.41 483.66 909.58 478.78 921.52"/><text class="cls-60" transform="translate(358.17 567.32) rotate(-90)">1.6: JSON Response</text><line class="cls-61" x1="369.54" y1="570.48" x2="369.54" y2="468.95"/><line class="cls-62" x1="369.54" y1="570.48" x2="369.54" y2="477.42"/><polygon class="cls-63" points="369.54 468.95 374.42 480.89 369.54 478.06 364.66 480.89 369.54 468.95"/><g class="cls-69"><path class="cls-70" d="M506.38,557.25v1.61h-6.06a5.5,5.5,0,0,1,1.22,2.08h-1.46a4.76,4.76,0,0,0-.78-1.37,2.94,2.94,0,0,0-1.34-1v-1.31Z"/><path class="cls-70" d="M506.38,554.51h-1.61V552.9h1.61Z"/><path class="cls-70" d="M499.6,551.6h-1.49v-5.5h1.17a8.22,8.22,0,0,0,1.92,1.39,11.22,11.22,0,0,0,2.66,1.07,9.43,9.43,0,0,0,2.52.36v1.55a10.45,10.45,0,0,1-3.55-.72,12,12,0,0,1-3.23-1.8Z"/><path class="cls-70" d="M501.91,544.43h-1.6v-1.6h1.6Zm4.47,0h-1.61v-1.6h1.61Z"/><path class="cls-70" d="M506.38,537.6H498v-2.53l5.72-1.53L498,532V529.5h8.39v1.57h-6.6l6.6,1.67v1.63l-6.6,1.66h6.6Z"/><path class="cls-70" d="M502.24,528.16a5.24,5.24,0,0,1-2.15-.38,3.9,3.9,0,0,1-1.15-.78,3.38,3.38,0,0,1-.76-1.08,4.67,4.67,0,0,1-.33-1.81,3.94,3.94,0,0,1,1.15-3,5.14,5.14,0,0,1,6.38,0,3.89,3.89,0,0,1,1.14,3,4,4,0,0,1-1.14,3A4.31,4.31,0,0,1,502.24,528.16Zm-.06-1.74a3.14,3.14,0,0,0,2.16-.66,2.27,2.27,0,0,0,0-3.33,3.24,3.24,0,0,0-2.19-.65,3.15,3.15,0,0,0-2.15.63,2.34,2.34,0,0,0,0,3.37A3.13,3.13,0,0,0,502.18,526.42Z"/><path class="cls-70" d="M498,518.72v-3.1a6.25,6.25,0,0,1,.16-1.59,2.83,2.83,0,0,1,.78-1.27,3.74,3.74,0,0,1,1.36-.8,6.23,6.23,0,0,1,2-.27,5.26,5.26,0,0,1,1.78.26,3.58,3.58,0,0,1,1.48.89,3,3,0,0,1,.67,1.19,5.11,5.11,0,0,1,.18,1.5v3.19Zm1.42-1.7H505v-1.26a4.81,4.81,0,0,0-.08-1,1.61,1.61,0,0,0-.35-.69,1.81,1.81,0,0,0-.81-.44,5.7,5.7,0,0,0-1.54-.17,5.15,5.15,0,0,0-1.49.17,1.79,1.79,0,0,0-.81.48,1.62,1.62,0,0,0-.4.78,8.05,8.05,0,0,0-.08,1.39Z"/><path class="cls-70" d="M506.38,510.25H498V504h1.42v4.52h1.86v-4.21h1.41v4.21H505v-4.68h1.41Z"/><path class="cls-70" d="M501.71,499.55h-1.47v-5.86h1.47Zm2.54,0h-1.48v-5.86h1.48Z"/><path class="cls-70" d="M501.71,492.71h-1.47v-5.86h1.47Zm2.54,0h-1.48v-5.86h1.48Z"/><path class="cls-70" d="M503.3,476.89l.52-1.64a3.67,3.67,0,0,1,2,1.25,3.56,3.56,0,0,1,.67,2.23,3.63,3.63,0,0,1-1.14,2.75,4.39,4.39,0,0,1-3.12,1.07,4.59,4.59,0,0,1-3.25-1.08,3.72,3.72,0,0,1-1.16-2.84,3.47,3.47,0,0,1,.91-2.5,3.3,3.3,0,0,1,1.55-.86l.4,1.68a1.73,1.73,0,0,0-1,.62,1.71,1.71,0,0,0-.38,1.14,1.92,1.92,0,0,0,.67,1.52,3.31,3.31,0,0,0,2.17.58,3.46,3.46,0,0,0,2.26-.58,1.84,1.84,0,0,0,.67-1.48,1.71,1.71,0,0,0-.42-1.16A2.48,2.48,0,0,0,503.3,476.89Z"/><path class="cls-70" d="M506.38,466.23v1.85l-1.91.73v3.35l1.91.69v1.8L498,471.38v-1.79Zm-3.32,3.12L500,470.51l3.11,1.13Z"/><path class="cls-70" d="M498,465.34v-3.09a6.39,6.39,0,0,1,.16-1.6,2.86,2.86,0,0,1,.78-1.26,3.61,3.61,0,0,1,1.36-.8,6.2,6.2,0,0,1,2-.28,5.52,5.52,0,0,1,1.78.26,3.7,3.7,0,0,1,1.48.9,2.9,2.9,0,0,1,.67,1.19,5,5,0,0,1,.18,1.5v3.18Zm1.42-1.69H505v-1.26a4.86,4.86,0,0,0-.08-1,1.63,1.63,0,0,0-.35-.68,1.81,1.81,0,0,0-.81-.44,5.27,5.27,0,0,0-1.54-.18,4.77,4.77,0,0,0-1.49.18,1.79,1.79,0,0,0-.81.48,1.53,1.53,0,0,0-.4.78,8.05,8.05,0,0,0-.08,1.39Z"/><path class="cls-70" d="M506.38,456.88H498v-6.22h1.42v4.53h1.86V451h1.41v4.21H505V450.5h1.41Z"/><path class="cls-70" d="M506.38,449.05H498V447.4l5.6-3.43H498V442.4h8.39v1.7l-5.47,3.38h5.47Z"/><path class="cls-70" d="M506.38,441.33h-1.53l-5.44-4.4v3.91H498V434.7h1.32l5.66,4.59v-4.77h1.41Z"/><path class="cls-70" d="M506.38,425.9v1.84l-1.91.73v3.35l1.91.69v1.8L498,431v-1.79ZM503.06,429,500,430.17l3.11,1.13Z"/><path class="cls-70" d="M520.43,554.5h-8.38v-2.71a9.25,9.25,0,0,1,.13-2,2.09,2.09,0,0,1,.82-1.21,2.55,2.55,0,0,1,1.63-.49,2.84,2.84,0,0,1,1.3.28,2.39,2.39,0,0,1,.82.71,2.46,2.46,0,0,1,.4.88,9.74,9.74,0,0,1,.12,1.76v1.1h3.16Zm-7-1.69h2.38v-.93a4.6,4.6,0,0,0-.13-1.33,1.11,1.11,0,0,0-.42-.53,1.08,1.08,0,0,0-.65-.19,1.1,1.1,0,0,0-.75.26,1.18,1.18,0,0,0-.38.69,9.77,9.77,0,0,0,0,1.21Z"/><path class="cls-70" d="M516.29,547a5.26,5.26,0,0,1-2.15-.39,4,4,0,0,1-1.15-.78,3.2,3.2,0,0,1-.75-1.08,4.64,4.64,0,0,1-.33-1.81,3.92,3.92,0,0,1,1.15-3,5.11,5.11,0,0,1,6.37,0,4.4,4.4,0,0,1,0,5.92A4.34,4.34,0,0,1,516.29,547Zm0-1.75a3.11,3.11,0,0,0,2.15-.66,2.25,2.25,0,0,0,0-3.33,3.22,3.22,0,0,0-2.19-.65,3.12,3.12,0,0,0-2.15.64,2.33,2.33,0,0,0,0,3.36A3.16,3.16,0,0,0,516.24,545.29Z"/><path class="cls-70" d="M517.71,538l-.17-1.65a2,2,0,0,0,1.22-.6,1.81,1.81,0,0,0,.39-1.23,1.9,1.9,0,0,0-.34-1.23,1,1,0,0,0-.81-.41.8.8,0,0,0-.51.17,1.38,1.38,0,0,0-.36.61c-.07.2-.19.65-.37,1.36a4.58,4.58,0,0,1-.83,1.91,2.2,2.2,0,0,1-2.88.41,2.34,2.34,0,0,1-.85-1.05,4.13,4.13,0,0,1-.29-1.65,3.56,3.56,0,0,1,.69-2.38,2.47,2.47,0,0,1,1.85-.84l.07,1.7a1.47,1.47,0,0,0-.93.46,1.72,1.72,0,0,0-.28,1.08,1.94,1.94,0,0,0,.3,1.15.61.61,0,0,0,.52.27.63.63,0,0,0,.51-.25,4.3,4.3,0,0,0,.56-1.56,8.89,8.89,0,0,1,.6-1.82,2.34,2.34,0,0,1,.86-.93,2.5,2.5,0,0,1,1.33-.34,2.53,2.53,0,0,1,1.35.4,2.47,2.47,0,0,1,.94,1.14,4.81,4.81,0,0,1,.3,1.82,3.61,3.61,0,0,1-.73,2.44A3.2,3.2,0,0,1,517.71,538Z"/><path class="cls-70" d="M520.43,527.88h-7v2.49h-1.42v-6.66h1.42v2.48h7Z"/><path class="cls-70" d="M520.43,519.36h-8.38v-3.57a5.83,5.83,0,0,1,.23-1.95,1.85,1.85,0,0,1,.8-1,2.34,2.34,0,0,1,1.32-.37,2.24,2.24,0,0,1,1.56.55,2.65,2.65,0,0,1,.77,1.66,3.92,3.92,0,0,1,.71-.9,9.57,9.57,0,0,1,1.36-1l1.63-1v2l-1.82,1.23a11.38,11.38,0,0,0-1.23.89,1.27,1.27,0,0,0-.35.51,2.53,2.53,0,0,0-.1.85v.34h3.5Zm-4.83-1.7v-1.25a6.23,6.23,0,0,0-.11-1.52.88.88,0,0,0-.35-.47,1.07,1.07,0,0,0-.63-.18,1,1,0,0,0-.68.23,1,1,0,0,0-.33.64c0,.13,0,.55,0,1.23v1.32Z"/><path class="cls-70" d="M518.5,507.4l.27-1.6a2.61,2.61,0,0,1,1.34,1,2.86,2.86,0,0,1,.46,1.67,2.69,2.69,0,0,1-1,2.34,3.52,3.52,0,0,1-2.1.6,3.38,3.38,0,0,1-2.36-.78,2.62,2.62,0,0,1-.86-2,2.69,2.69,0,0,1,.9-2.14,4,4,0,0,1,2.74-.75v4a1.59,1.59,0,0,0,1.11-.39,1.21,1.21,0,0,0,.4-.93,1,1,0,0,0-.21-.63A1.24,1.24,0,0,0,518.5,507.4Zm-1.62-.09a1.52,1.52,0,0,0-1.06.36,1.07,1.07,0,0,0-.37.83,1.11,1.11,0,0,0,.39.87,1.48,1.48,0,0,0,1,.34Z"/><path class="cls-70" d="M522.74,500.43h-3a2.26,2.26,0,0,1,.64.79,2.18,2.18,0,0,1,.24,1,2.13,2.13,0,0,1-.78,1.7,3.6,3.6,0,0,1-2.46.79A3.27,3.27,0,0,1,515,504a2.38,2.38,0,0,1-.82-1.84,2.1,2.1,0,0,1,.26-1.05,2.41,2.41,0,0,1,.78-.78h-.9v-1.48h8.38Zm-5.42-.05a2.12,2.12,0,0,0-1.38.38,1.18,1.18,0,0,0-.46.95,1.26,1.26,0,0,0,.46,1,2.27,2.27,0,0,0,1.47.39,2.19,2.19,0,0,0,1.45-.38,1.18,1.18,0,0,0,.44-.93,1.25,1.25,0,0,0-.5-1A2.23,2.23,0,0,0,517.32,500.38Z"/><path class="cls-70" d="M520.43,493.25h-.91a2.31,2.31,0,0,1,.77.87,2.4,2.4,0,0,1,.28,1.14,2.21,2.21,0,0,1-.27,1.1,1.54,1.54,0,0,1-.75.7,3.33,3.33,0,0,1-1.35.22h-3.84v-1.6h2.79a7.64,7.64,0,0,0,1.57-.09.86.86,0,0,0,.46-.33,1,1,0,0,0,.17-.59,1.27,1.27,0,0,0-.23-.74,1.15,1.15,0,0,0-.56-.45,6.5,6.5,0,0,0-1.64-.12h-2.56v-1.6h6.07Z"/><path class="cls-70" d="M518.5,486.58l.27-1.6a2.61,2.61,0,0,1,1.34,1,2.84,2.84,0,0,1,.46,1.67,2.7,2.7,0,0,1-1,2.34,3.52,3.52,0,0,1-2.1.6,3.33,3.33,0,0,1-2.36-.79,2.59,2.59,0,0,1-.86-2,2.68,2.68,0,0,1,.9-2.14,4,4,0,0,1,2.74-.75v4a1.69,1.69,0,0,0,1.11-.39,1.21,1.21,0,0,0,.4-.93,1,1,0,0,0-.21-.63A1.13,1.13,0,0,0,518.5,486.58Zm-1.62-.1a1.57,1.57,0,0,0-1.06.37,1.06,1.06,0,0,0-.37.83,1.11,1.11,0,0,0,.39.87,1.48,1.48,0,0,0,1,.34Z"/><path class="cls-70" d="M518.7,484.15l-.25-1.62a1.2,1.2,0,0,0,.72-.41,1.45,1.45,0,0,0,.24-.89,1.59,1.59,0,0,0-.23-.93.52.52,0,0,0-.43-.21.4.4,0,0,0-.3.11,1.18,1.18,0,0,0-.21.54,8.56,8.56,0,0,1-.79,2.46,1.55,1.55,0,0,1-1.36.72,1.67,1.67,0,0,1-1.33-.62,2.91,2.91,0,0,1-.54-1.93,3.42,3.42,0,0,1,.41-1.86,2.07,2.07,0,0,1,1.2-.83l.28,1.51a.93.93,0,0,0-.54.37,1.32,1.32,0,0,0-.19.78,1.75,1.75,0,0,0,.18.91.37.37,0,0,0,.32.18.34.34,0,0,0,.29-.16,5.58,5.58,0,0,0,.45-1.5,4.54,4.54,0,0,1,.72-1.79,1.47,1.47,0,0,1,1.19-.51,1.86,1.86,0,0,1,1.44.7,3.09,3.09,0,0,1,.6,2.06,3.44,3.44,0,0,1-.5,2A2.35,2.35,0,0,1,518.7,484.15Z"/><path class="cls-70" d="M514.36,474.28h1.28v1.1h2.45a6.29,6.29,0,0,0,.86,0,.35.35,0,0,0,.21-.15.46.46,0,0,0,.08-.27,1.89,1.89,0,0,0-.16-.64l1.25-.14a3.2,3.2,0,0,1,.24,1.27,1.94,1.94,0,0,1-.15.78,1,1,0,0,1-.37.51,1.51,1.51,0,0,1-.63.23,8.55,8.55,0,0,1-1.13.05h-2.65v.74h-1.28V477h-1.21l-.93-1.61h2.14Z"/></g><line class="cls-58" x1="523.93" y1="468.95" x2="523.93" y2="572.39"/><polygon class="cls-59" points="523.93 580.86 519.06 568.92 523.93 571.76 528.81 568.92 523.93 580.86"/><text class="cls-60" transform="translate(632.92 755.24)">1.8: Creates Geometries</text><polyline class="cls-67" points="621.48 643.33 621.93 761.04 785.61 761.04 785.61 913.04"/><polygon class="cls-68" points="785.61 921.52 780.73 909.58 785.61 912.41 790.49 909.58 785.61 921.52"/><text class="cls-60" transform="translate(714.72 577.19) rotate(-90)"><tspan xml:space="preserve">1.9:   POST Request  </tspan></text><line class="cls-58" x1="726.33" y1="468.95" x2="726.33" y2="571.5"/><polygon class="cls-59" points="726.33 579.98 721.45 568.04 726.33 570.87 731.2 568.04 726.33 579.98"/><text class="cls-60" transform="translate(809.73 777.36) rotate(-90)">1.10: Database query</text><line class="cls-67" x1="815.17" y1="643.33" x2="816.34" y2="913.34"/><polygon class="cls-68" points="816.38 921.82 811.45 909.9 816.34 912.71 821.2 909.85 816.38 921.82"/><text class="cls-60" transform="translate(804.05 577.72) rotate(-90)">1.<tspan class="cls-71" x="9.77" y="0">1</tspan><tspan x="15.63" y="0">1: JSON Response</tspan></text><line class="cls-61" x1="815.42" y1="580.86" x2="815.42" y2="468.95"/><line class="cls-62" x1="815.42" y1="580.86" x2="815.42" y2="477.42"/><polygon class="cls-63" points="815.42 468.95 820.3 480.89 815.42 478.06 810.55 480.89 815.42 468.95"/><polyline class="cls-43" points="307.17 653.74 307.17 676.3 227.92 676.3"/><polygon class="cls-59" points="223.69 676.3 229.66 673.86 228.24 676.3 229.66 678.73 223.69 676.3"/><text class="cls-60" transform="translate(235.83 671.88)">Depends on</text><text class="cls-60" transform="translate(1012.45 958.19)">Reads from</text><line class="cls-67" x1="1104.57" y1="963.46" x2="975.68" y2="963.46"/><polygon class="cls-68" points="967.21 963.46 979.15 958.58 976.31 963.46 979.15 968.34 967.21 963.46"/><text class="cls-60" transform="translate(1270.94 733.67) rotate(-90) scale(1.02 1)">Embeds</text><line class="cls-65" x1="1276.43" y1="913.71" x2="1276.43" y2="468.95"/><polygon class="cls-66" points="1276.43 922.19 1281.31 910.25 1276.43 913.08 1271.55 910.25 1276.43 922.19"/></g></g></svg>