<svg xmlns="http://www.w3.org/2000/svg" viewBox="0 0 882 422.08"><defs><style>.cls-1{fill:#fff;}.cls-2,.cls-8{isolation:isolate;}.cls-2{font-size:41.64px;font-family:Arial-BoldMT, Arial;font-weight:700;}.cls-2,.cls-6{fill:#333;}.cls-3{letter-spacing:-0.04em;}.cls-4{fill:#bbdefb;stroke:#1976d2;}.cls-5,.cls-8{font-size:13.22px;fill:#666;}.cls-12,.cls-5,.cls-6,.cls-8{font-family:ArialMT, Arial;}.cls-12,.cls-6{font-size:11.02px;}.cls-7{fill:#ffe0b2;stroke:#f57c00;}.cls-9{fill:#f3e5f5;stroke:#9c27b0;}.cls-10{letter-spacing:-0.02em;}.cls-11{letter-spacing:-0.11em;}.cls-13{fill:none;stroke:#000;stroke-miterlimit:10;stroke-width:2px;}</style></defs><title>Element 15</title><g id="Ebene_2" data-name="Ebene 2"><g id="Ebene_1-2" data-name="Ebene 1"><rect class="cls-1" x="0.5" y="0.5" width="881" height="421.08"/><path d="M881,1V421.08H1V1H881m1-1H0V422.08H882V0Z"/><rect class="cls-1" x="20" y="9.08" width="833" height="406"/><text id="Heading" class="cls-2" transform="translate(24.49 53.82)">Flask GeoPixel<tspan class="cls-3" x="296.28" y="0"> </tspan><tspan x="306.3" y="0">Application - Components</tspan></text><path class="cls-4" d="M385.91,113.43H522c1.75,0,3.17,1.87,3.17,4.17v75c0,2.3-1.42,4.17-3.17,4.17h-136c-1.75,0-3.16-1.87-3.16-4.17v-75c0-2.3,1.41-4.17,3.16-4.17"/><text class="cls-5" transform="translate(404.71 153.28)">Flask application</text><text class="cls-6" transform="translate(404.71 166.51) scale(1.03 1)">• User interaction</text><g id="Runpod"><path class="cls-7" d="M52.53,108.81H252.42a4.17,4.17,0,0,1,4.16,4.17v75a4.16,4.16,0,0,1-4.16,4.16H52.53a4.16,4.16,0,0,1-4.16-4.16V113a4.17,4.17,0,0,1,4.16-4.17"/><text class="cls-8" transform="translate(97.51 131.95)">RunPod.io</text><text class="cls-6" transform="translate(97.51 145.17) scale(1.03 1)">• Hosted on runpod.io<tspan x="0" y="13.22">• Port 5000 is exposed</tspan><tspan x="0" y="26.45">• Changing URLs</tspan></text></g><g id="Internal"><path class="cls-9" d="M387.75,322.81H520.24c1.52,0,2.76,1.87,2.76,4.17v75c0,2.3-1.24,4.16-2.76,4.16H387.75c-1.53,0-2.77-1.86-2.77-4.16V327c0-2.3,1.24-4.17,2.77-4.17"/><text class="cls-8" transform="translate(404.74 361.95)">Internal Storage</text><text class="cls-6" transform="translate(404.74 375.17) scale(1.03 1)">•<tspan class="cls-10" x="3.86" y="0"> </tspan><tspan class="cls-11" x="6.72" y="0">T</tspan><tspan x="12.23" y="0">emporary storaget</tspan></text></g><g id="PostGIS"><path class="cls-9" d="M660.18,322.81H808.9c1.71,0,3.1,1.87,3.1,4.17v75c0,2.3-1.39,4.16-3.1,4.16H660.18c-1.72,0-3.1-1.86-3.1-4.16V327c0-2.3,1.38-4.17,3.1-4.17"/><text class="cls-8" transform="translate(676.83 364.95)">PostGIS Database</text><text class="cls-6" transform="translate(676.83 378.17) scale(1.03 1)">• Host: 127.0.0.1:5433</text></g><g id="Cadenza"><path class="cls-7" d="M645.13,113.81H824.27A4,4,0,0,1,828,118v75a4,4,0,0,1-3.73,4.16H645.13a4,4,0,0,1-3.73-4.16V118a4,4,0,0,1,3.73-4.17"/><text class="cls-8" transform="translate(690.41 150.84)">disy Cadenza</text><text class="cls-6" transform="translate(690.41 164.07) scale(1.03 1)">• localhost:8080 </text></g><g id="Ebene_3" data-name="Ebene 3"><text class="cls-12" transform="translate(548.68 150.72) scale(1.03 1)">App embeds </text><line class="cls-13" x1="532.47" y1="155.08" x2="632.93" y2="155.08"/><polygon points="524 155.08 535.94 159.96 533.11 155.08 535.94 150.21 524 155.08"/><polygon points="641.4 155.08 629.46 159.96 632.29 155.08 629.46 150.21 641.4 155.08"/></g><path d="M730.86,288.81H723v-3.59a5,5,0,0,1,.21-1.65,1.82,1.82,0,0,1,.75-.9,2.26,2.26,0,0,1,1.19-.34,2,2,0,0,1,1.42.56,2.92,2.92,0,0,1,.73,1.72,2.75,2.75,0,0,1,.39-.64,5.58,5.58,0,0,1,1.05-.89l2.15-1.41V283l-1.64,1.07c-.48.31-.84.57-1.09.77a2.62,2.62,0,0,0-.53.55,1.61,1.61,0,0,0-.21.49,3.74,3.74,0,0,0,0,.59v1.24h3.51Zm-4.41-1.08v-2.3a3.52,3.52,0,0,0-.15-1.15,1.26,1.26,0,0,0-.47-.63,1.28,1.28,0,0,0-.71-.21,1.16,1.16,0,0,0-.92.42,2,2,0,0,0-.36,1.31v2.56Z"/><path d="M729,276.77l.12-1a2.39,2.39,0,0,1,1.36.9,2.79,2.79,0,0,1,.49,1.68,2.7,2.7,0,0,1-.78,2,3,3,0,0,1-2.16.75,3.1,3.1,0,0,1-2.24-.76,2.62,2.62,0,0,1-.8-2,2.55,2.55,0,0,1,.78-1.93,3.1,3.1,0,0,1,2.2-.74h.26v4.38a2.15,2.15,0,0,0,1.44-.55,1.67,1.67,0,0,0,.5-1.23,1.53,1.53,0,0,0-.28-.93A1.83,1.83,0,0,0,729,276.77ZM727.45,280v-3.27a1.91,1.91,0,0,0-1.08.37,1.56,1.56,0,0,0-.56,1.23,1.62,1.62,0,0,0,.45,1.16A1.7,1.7,0,0,0,727.45,280Z"/><path d="M730.15,270.67a3.62,3.62,0,0,1,.65,1.06,3.29,3.29,0,0,1,.19,1.09,2.19,2.19,0,0,1-.46,1.49,1.5,1.5,0,0,1-1.18.52,1.58,1.58,0,0,1-1.32-.71,2.36,2.36,0,0,1-.32-.72,7.31,7.31,0,0,1-.15-.88,9,9,0,0,0-.33-1.77H727a1.09,1.09,0,0,0-.84.28,1.72,1.72,0,0,0-.32,1.14,1.87,1.87,0,0,0,.23,1,1.52,1.52,0,0,0,.85.5l-.13,1a2.4,2.4,0,0,1-1-.44,1.83,1.83,0,0,1-.57-.88A3.83,3.83,0,0,1,725,272a3.49,3.49,0,0,1,.18-1.22,1.64,1.64,0,0,1,.43-.69,1.56,1.56,0,0,1,.66-.31,5.58,5.58,0,0,1,.89-.05h1.29a14.19,14.19,0,0,0,1.71-.06,2.2,2.2,0,0,0,.69-.25v1A2.11,2.11,0,0,1,730.15,270.67Zm-2.16.08a8.23,8.23,0,0,1,.37,1.62,3.61,3.61,0,0,0,.19.87.87.87,0,0,0,.31.39.86.86,0,0,0,.46.14.82.82,0,0,0,.65-.3,1.34,1.34,0,0,0,.26-.88,2,2,0,0,0-.25-1,1.47,1.47,0,0,0-.67-.66,2.24,2.24,0,0,0-1-.16Z"/><path d="M730.86,264.4h-.72A1.85,1.85,0,0,1,731,266a2.35,2.35,0,0,1-.38,1.29,2.53,2.53,0,0,1-1.05.91,3.64,3.64,0,0,1-1.55.32,3.91,3.91,0,0,1-1.56-.29,2.26,2.26,0,0,1-1.06-.88,2.36,2.36,0,0,1-.38-1.31,2,2,0,0,1,.22-.94,2,2,0,0,1,.57-.67H723v-1h7.89ZM728,267.54a2.49,2.49,0,0,0,1.64-.47,1.46,1.46,0,0,0,.54-1.13,1.4,1.4,0,0,0-.52-1.1,2.31,2.31,0,0,0-1.58-.46,2.65,2.65,0,0,0-1.73.47,1.43,1.43,0,0,0-.54,1.14,1.4,1.4,0,0,0,.52,1.11A2.61,2.61,0,0,0,728,267.54Z"/><path d="M729.15,262.31l-.15-1a1.35,1.35,0,0,0,.88-.46,1.61,1.61,0,0,0,.31-1.06,1.59,1.59,0,0,0-.27-1,.82.82,0,0,0-.64-.33.59.59,0,0,0-.52.3,4.52,4.52,0,0,0-.32,1,9.49,9.49,0,0,1-.47,1.52,1.49,1.49,0,0,1-.54.64,1.47,1.47,0,0,1-1.48,0,1.8,1.8,0,0,1-.54-.49,2.32,2.32,0,0,1-.28-.63A3,3,0,0,1,725,260a3.51,3.51,0,0,1,.2-1.22,1.72,1.72,0,0,1,.52-.77,2.21,2.21,0,0,1,.89-.34l.13,1a1,1,0,0,0-.69.39,1.39,1.39,0,0,0-.25.89,1.63,1.63,0,0,0,.22,1,.64.64,0,0,0,.52.3.5.5,0,0,0,.34-.13.79.79,0,0,0,.25-.38c0-.1.12-.39.25-.88a11.53,11.53,0,0,1,.45-1.47,1.58,1.58,0,0,1,.51-.65,1.38,1.38,0,0,1,.83-.24,1.61,1.61,0,0,1,.91.29,1.76,1.76,0,0,1,.66.84,3,3,0,0,1,.24,1.23,2.81,2.81,0,0,1-.47,1.75A2.09,2.09,0,0,1,729.15,262.31Z"/><path d="M730.86,252.88h-5v.88h-.76v-.88h-.61a2.56,2.56,0,0,1-.85-.11,1.19,1.19,0,0,1-.61-.5,1.82,1.82,0,0,1-.24-1,5.47,5.47,0,0,1,.1-.93l.85.15a3,3,0,0,0-.06.58.84.84,0,0,0,.19.64,1,1,0,0,0,.71.19h.52v-1.14h.76v1.14h5Z"/><path d="M730.86,250h-5.72v-.9H726a2.39,2.39,0,0,1-.8-.63,1.13,1.13,0,0,1-.2-.64,2,2,0,0,1,.32-1l.89.34a1.48,1.48,0,0,0-.21.73,1,1,0,0,0,.2.59,1,1,0,0,0,.53.37,3.67,3.67,0,0,0,1.13.16h3Z"/><path d="M728,246.58a2.88,2.88,0,0,1-2.35-.91,2.77,2.77,0,0,1-.64-1.84,2.65,2.65,0,0,1,.78-2,2.88,2.88,0,0,1,2.13-.77,3.77,3.77,0,0,1,1.73.34,2.42,2.42,0,0,1,1,1,3,3,0,0,1,.35,1.42,2.69,2.69,0,0,1-.77,2A3,3,0,0,1,728,246.58Zm0-1a2.42,2.42,0,0,0,1.64-.49,1.66,1.66,0,0,0,0-2.47,2.42,2.42,0,0,0-1.67-.49,2.33,2.33,0,0,0-1.61.49,1.68,1.68,0,0,0,0,2.47A2.42,2.42,0,0,0,728,245.56Z"/><path d="M730.86,239.92h-5.72V239h.8a2,2,0,0,1-.67-.73,2.15,2.15,0,0,1-.26-1.05,2,2,0,0,1,.27-1.07,1.4,1.4,0,0,1,.73-.58,2.15,2.15,0,0,1-1-1.82,1.84,1.84,0,0,1,.47-1.34,2,2,0,0,1,1.45-.47h3.93v1h-3.6a2.43,2.43,0,0,0-.84.1.77.77,0,0,0-.41.35,1.17,1.17,0,0,0-.16.6,1.42,1.42,0,0,0,.4,1,1.72,1.72,0,0,0,1.29.41h3.32v1h-3.72a1.58,1.58,0,0,0-1,.24.92.92,0,0,0-.33.79,1.44,1.44,0,0,0,.22.78,1.21,1.21,0,0,0,.63.52,3.58,3.58,0,0,0,1.19.16h3Z"/><line class="cls-13" x1="734.7" y1="197.58" x2="734.98" y2="314.61"/><polygon points="735 323.08 730.09 311.16 734.98 313.98 739.85 311.13 735 323.08"/><path d="M575.81,239.58l4.06-7.1.77.78-2.78,4.53q-.43.71-.9,1.38c.74-.45,1.17-.71,1.29-.77l4.85-2.68.92.91-2,3.65a20.19,20.19,0,0,1-1.53,2.42q.64-.42,1.5-.93l4.49-2.69.76.76-7.15,4-.73-.73,3-5.46c.26-.45.41-.73.48-.83-.32.2-.59.36-.83.49l-5.46,3Z"/><path d="M582.11,245.88l4-4,.64.64-.62.61a2.26,2.26,0,0,1,1-.12,1.13,1.13,0,0,1,.59.31,2.06,2.06,0,0,1,.5.95l-.88.39A1.43,1.43,0,0,0,587,244a.89.89,0,0,0-.55-.28,1,1,0,0,0-.63.11,3.58,3.58,0,0,0-.92.68l-2.11,2.12Z"/><path d="M589.58,243.77l.79-.79.7.7-.79.79Zm-4.79,4.79,4-4,.7.7-4,4Z"/><path d="M588.71,251.25l-.51.71a4.34,4.34,0,0,1-.59-.47,1.77,1.77,0,0,1-.47-.71,1,1,0,0,1,0-.61,3.43,3.43,0,0,1,.72-.89L590.2,247l-.52-.51.54-.54.51.52,1-1,1.11.29-1.41,1.41.71.71-.54.53-.7-.71L588.53,250a2.22,2.22,0,0,0-.34.42.42.42,0,0,0,0,.25.76.76,0,0,0,.19.29A3,3,0,0,0,588.71,251.25Z"/><path d="M592.92,254.09l.64.81a2.45,2.45,0,0,1-1.6.33,3.08,3.08,0,0,1-2.42-2.83,3,3,0,0,1,1-2.07,3.08,3.08,0,0,1,2.13-1,2.62,2.62,0,0,1,2,.83,2.56,2.56,0,0,1,.8,1.91,3,3,0,0,1-1,2.08l-.19.18-3.09-3.09a2.13,2.13,0,0,0-.63,1.41,1.63,1.63,0,0,0,.51,1.22,1.59,1.59,0,0,0,.86.46A1.86,1.86,0,0,0,592.92,254.09Zm-1.2-3.41L594,253a1.92,1.92,0,0,0,.5-1,1.54,1.54,0,0,0-.48-1.27,1.6,1.6,0,0,0-1.13-.49A1.75,1.75,0,0,0,591.72,250.68Z"/><path d="M594.15,255.51l.81.59a1.27,1.27,0,0,0-.3.95,1.63,1.63,0,0,0,.53,1,1.6,1.6,0,0,0,.91.52.8.8,0,0,0,.68-.21.59.59,0,0,0,.16-.58,4.68,4.68,0,0,0-.48-.95,9.88,9.88,0,0,1-.75-1.4,1.53,1.53,0,0,1-.07-.84,1.59,1.59,0,0,1,.39-.69,1.35,1.35,0,0,1,.63-.37,1.5,1.5,0,0,1,.73,0,2,2,0,0,1,.64.24,2.89,2.89,0,0,1,.69.53,3.44,3.44,0,0,1,.72,1,1.63,1.63,0,0,1,.18.92,2.06,2.06,0,0,1-.39.87l-.77-.6a1.07,1.07,0,0,0,.21-.76,1.42,1.42,0,0,0-.46-.81,1.6,1.6,0,0,0-.85-.53.65.65,0,0,0-.57.16.5.5,0,0,0-.15.32.83.83,0,0,0,.09.46c0,.09.19.36.44.79a11.44,11.44,0,0,1,.72,1.36,1.35,1.35,0,0,1-.31,1.58,1.7,1.7,0,0,1-.85.44,1.89,1.89,0,0,1-1.06-.13,3.11,3.11,0,0,1-1-.71,2.86,2.86,0,0,1-.91-1.56A2.17,2.17,0,0,1,594.15,255.51Z"/><path d="M601.6,264.14l-.51.71a4.5,4.5,0,0,1-.59-.47,1.93,1.93,0,0,1-.48-.71,1,1,0,0,1,0-.61,3.27,3.27,0,0,1,.72-.89l2.33-2.33-.52-.51.53-.54.52.52,1-1,1.11.28L604.32,260l.7.7-.53.54-.71-.71-2.36,2.36a1.86,1.86,0,0,0-.34.42.42.42,0,0,0,0,.25.66.66,0,0,0,.19.29A3,3,0,0,0,601.6,264.14Z"/><path d="M603.43,263.16a2.89,2.89,0,0,1,2.3-1,2.77,2.77,0,0,1,1.76.85,2.68,2.68,0,0,1,.85,1.95,2.9,2.9,0,0,1-1,2.05,3.58,3.58,0,0,1-1.47,1,2.35,2.35,0,0,1-1.39,0,2.86,2.86,0,0,1-1.25-.76,2.65,2.65,0,0,1-.86-1.95A3,3,0,0,1,603.43,263.16Zm.72.72a2.35,2.35,0,0,0-.81,1.51,1.65,1.65,0,0,0,1.74,1.74,2.45,2.45,0,0,0,1.54-.83,2.35,2.35,0,0,0,.78-1.49,1.66,1.66,0,0,0-1.74-1.74A2.35,2.35,0,0,0,604.15,263.88Z"/><line class="cls-13" x1="524" y1="196.08" x2="651.87" y2="318.23"/><polygon points="658 324.08 646 319.36 651.41 317.79 652.74 312.31 658 324.08"/><path d="M446.3,290.55l-.08-1a2.15,2.15,0,0,0,1-.33,1.9,1.9,0,0,0,.61-.82,3,3,0,0,0,.23-1.24,3.22,3.22,0,0,0-.17-1.08,1.49,1.49,0,0,0-.49-.7,1.14,1.14,0,0,0-.68-.23,1,1,0,0,0-.64.22,1.65,1.65,0,0,0-.47.73c-.08.22-.21.7-.38,1.44a7.42,7.42,0,0,1-.5,1.57,2.16,2.16,0,0,1-.73.86,1.75,1.75,0,0,1-1,.28,2,2,0,0,1-1.12-.34,2.16,2.16,0,0,1-.79-1,3.9,3.9,0,0,1-.27-1.48,4.1,4.1,0,0,1,.29-1.59,2.22,2.22,0,0,1,.83-1.06,2.31,2.31,0,0,1,1.24-.4l.07,1a1.6,1.6,0,0,0-1.13.56,2.26,2.26,0,0,0-.38,1.41,2.33,2.33,0,0,0,.35,1.42,1,1,0,0,0,.84.44.9.9,0,0,0,.7-.31,4.44,4.44,0,0,0,.56-1.62,11,11,0,0,1,.5-1.79,2.37,2.37,0,0,1,.81-1,1.86,1.86,0,0,1,1.12-.34,2.06,2.06,0,0,1,1.18.37,2.42,2.42,0,0,1,.87,1.06,3.71,3.71,0,0,1,.31,1.56,4.68,4.68,0,0,1-.31,1.84,2.55,2.55,0,0,1-.94,1.17A2.59,2.59,0,0,1,446.3,290.55Z"/><path d="M448.13,279a3.62,3.62,0,0,1,.65,1.06,3.3,3.3,0,0,1,.18,1.1,2.13,2.13,0,0,1-.46,1.48,1.46,1.46,0,0,1-1.17.52,1.55,1.55,0,0,1-.77-.2,1.59,1.59,0,0,1-.55-.51,2.41,2.41,0,0,1-.32-.71,8,8,0,0,1-.15-.89,9,9,0,0,0-.33-1.77H445a1.05,1.05,0,0,0-.84.29,1.68,1.68,0,0,0-.33,1.13,1.78,1.78,0,0,0,.24,1,1.47,1.47,0,0,0,.85.5l-.13,1a2.27,2.27,0,0,1-1-.44,1.91,1.91,0,0,1-.58-.88,4.09,4.09,0,0,1-.2-1.33,3.77,3.77,0,0,1,.17-1.22,1.65,1.65,0,0,1,.44-.69,1.56,1.56,0,0,1,.66-.31,5.58,5.58,0,0,1,.89-.05h1.29a14.19,14.19,0,0,0,1.71-.06,2.2,2.2,0,0,0,.69-.25v1A2.11,2.11,0,0,1,448.13,279ZM446,279a7.67,7.67,0,0,1,.36,1.62,4,4,0,0,0,.2.87.81.81,0,0,0,.31.39.83.83,0,0,0,.46.14.82.82,0,0,0,.65-.3,1.34,1.34,0,0,0,.26-.88,2.11,2.11,0,0,0-.25-1,1.52,1.52,0,0,0-.67-.66,2.24,2.24,0,0,0-1-.16Z"/><path d="M448.84,274.85l-5.72,2.24v-1l3.42-1.26c.37-.14.76-.26,1.16-.38-.31-.09-.67-.21-1.09-.37l-3.49-1.3v-1l5.72,2.22Z"/><path d="M447,266.82l.12-1a2.42,2.42,0,0,1,1.36.9,2.78,2.78,0,0,1,.48,1.68,2.72,2.72,0,0,1-.77,2,3,3,0,0,1-2.16.75,3.1,3.1,0,0,1-2.24-.76,2.63,2.63,0,0,1-.8-2,2.55,2.55,0,0,1,.78-1.92,3,3,0,0,1,2.2-.75h.26v4.37a2.19,2.19,0,0,0,1.44-.54,1.67,1.67,0,0,0,.5-1.23,1.53,1.53,0,0,0-.28-.93A1.88,1.88,0,0,0,447,266.82Zm-1.57,3.26V266.8a1.91,1.91,0,0,0-1.08.38,1.53,1.53,0,0,0-.56,1.23,1.58,1.58,0,0,0,.45,1.15A1.75,1.75,0,0,0,445.43,270.08Z"/><path d="M447.13,264.94l-.15-1a1.27,1.27,0,0,0,.88-.46,2,2,0,0,0,0-2.07.82.82,0,0,0-.64-.33.6.6,0,0,0-.52.29,5.36,5.36,0,0,0-.33,1,8.57,8.57,0,0,1-.46,1.51,1.43,1.43,0,0,1-.54.64,1.41,1.41,0,0,1-.77.22,1.44,1.44,0,0,1-.71-.18,1.49,1.49,0,0,1-.54-.49,1.85,1.85,0,0,1-.28-.63,3,3,0,0,1-.12-.86,3.45,3.45,0,0,1,.2-1.21,1.59,1.59,0,0,1,.52-.77,2,2,0,0,1,.89-.34l.12,1a1,1,0,0,0-.68.38,1.42,1.42,0,0,0-.25.9,1.65,1.65,0,0,0,.22,1,.65.65,0,0,0,.52.29.52.52,0,0,0,.33-.12.85.85,0,0,0,.26-.38c0-.1.12-.39.25-.88a11.53,11.53,0,0,1,.45-1.47,1.55,1.55,0,0,1,.51-.66,1.45,1.45,0,0,1,.83-.23,1.56,1.56,0,0,1,.91.29,1.91,1.91,0,0,1,.66.83,3.08,3.08,0,0,1,.23,1.24,2.8,2.8,0,0,1-.46,1.74A2.13,2.13,0,0,1,447.13,264.94Z"/><path d="M448.84,255.77H441v-1h7.89Z"/><path d="M446,253.6a2.88,2.88,0,0,1-2.35-.91,2.95,2.95,0,0,1,.13-3.82,2.92,2.92,0,0,1,2.14-.76,3.64,3.64,0,0,1,1.73.34,2.32,2.32,0,0,1,1,1,2.9,2.9,0,0,1,.35,1.42,2.67,2.67,0,0,1-.76,2A3,3,0,0,1,446,253.6Zm0-1a2.36,2.36,0,0,0,1.64-.49,1.66,1.66,0,0,0,0-2.47,2.43,2.43,0,0,0-1.67-.49,2.32,2.32,0,0,0-1.61.49,1.61,1.61,0,0,0-.55,1.23,1.58,1.58,0,0,0,.55,1.24A2.36,2.36,0,0,0,446,252.58Z"/><path d="M446.74,243.11l.13-1a2.35,2.35,0,0,1,2.09,2.44,2.53,2.53,0,0,1-.76,1.93,3.06,3.06,0,0,1-2.2.73,3.87,3.87,0,0,1-1.62-.31,2.16,2.16,0,0,1-1-1,2.91,2.91,0,0,1-.35-1.4,2.5,2.5,0,0,1,.47-1.56,2.17,2.17,0,0,1,1.34-.78l.15,1a1.49,1.49,0,0,0-.87.49,1.28,1.28,0,0,0-.29.84,1.55,1.55,0,0,0,.52,1.22,2.42,2.42,0,0,0,1.66.47,2.56,2.56,0,0,0,1.68-.45,1.52,1.52,0,0,0,.52-1.18,1.43,1.43,0,0,0-.35-1A1.71,1.71,0,0,0,446.74,243.11Z"/><path d="M448.13,237.46a3.75,3.75,0,0,1,.65,1.06,3.3,3.3,0,0,1,.18,1.1,2.13,2.13,0,0,1-.46,1.48,1.46,1.46,0,0,1-1.17.52,1.54,1.54,0,0,1-.77-.19,1.52,1.52,0,0,1-.55-.52,2.41,2.41,0,0,1-.32-.71,8.12,8.12,0,0,1-.15-.88,9,9,0,0,0-.33-1.78H445a1,1,0,0,0-.84.28,1.68,1.68,0,0,0-.33,1.13,1.82,1.82,0,0,0,.24,1,1.51,1.51,0,0,0,.85.49l-.13,1a2.39,2.39,0,0,1-1-.43,2,2,0,0,1-.58-.88,4.13,4.13,0,0,1-.2-1.33,3.73,3.73,0,0,1,.17-1.22,1.52,1.52,0,0,1,.44-.69,1.45,1.45,0,0,1,.66-.31,4.58,4.58,0,0,1,.89-.05h1.29a11.65,11.65,0,0,0,1.71-.07,2,2,0,0,0,.69-.25v1A2.11,2.11,0,0,1,448.13,237.46Zm-2.16.08a7.64,7.64,0,0,1,.36,1.63,3.91,3.91,0,0,0,.2.86.89.89,0,0,0,.31.4.86.86,0,0,0,1.11-.17,1.32,1.32,0,0,0,.26-.88,2.14,2.14,0,0,0-.25-1,1.52,1.52,0,0,0-.67-.66,2.4,2.4,0,0,0-1-.16Z"/><path d="M448.84,235H441v-1h7.89Z"/><path d="M448.84,232.51H441v-1h7.89Z"/><path d="M451,230l-.91.11a2.67,2.67,0,0,0,.08-.57,1.14,1.14,0,0,0-.1-.53,1.08,1.08,0,0,0-.31-.33,4.46,4.46,0,0,0-.72-.3l-.23-.09-5.73,2.23v-1.08l3.31-1.22c.42-.15.86-.3,1.32-.42-.44-.12-.87-.25-1.3-.41l-3.33-1.25v-1l5.81,2.23a12,12,0,0,1,1.3.56,1.94,1.94,0,0,1,.7.61,1.46,1.46,0,0,1,.23.82A2,2,0,0,1,451,230Z"/><line class="cls-13" x1="453.93" y1="196.72" x2="453.99" y2="314.34"/><polygon points="453.99 322.81 449.11 310.88 453.99 313.71 458.86 310.87 453.99 322.81"/><g id="Ebene_2-2" data-name="Ebene 2"><line class="cls-13" x1="265.05" y1="150.46" x2="374.27" y2="150.46"/><polygon points="256.58 150.46 268.52 155.34 265.69 150.46 268.52 145.58 256.58 150.46"/><polygon points="382.75 150.46 370.81 155.34 373.64 150.46 370.81 145.58 382.75 150.46"/><text class="cls-12" transform="translate(283.68 145.72) scale(1.03 1)">App curls pod<tspan x="0" y="16.82">Pod responds</tspan></text></g></g></g></svg>