<svg viewBox="0 0 1300 238" xmlns="http://www.w3.org/2000/svg" xml:space="preserve" style="fill-rule:evenodd;clip-rule:evenodd;stroke-linejoin:round;stroke-miterlimit:2"><path d="M479.871 194.671c0 25.6 21.541 39.033 43.596 39.033 30.67 0 40.808-25.346 40.808-25.346h.508s-.508 3.296-.508 7.604c0 9.125 4.567 14.7 15.971 14.7h14.646v-21.033h-1.971c-3.55 0-5.575-1.779-5.575-5.579v-54.5c0-28.387-11.154-50.187-52.725-50.187-12.421 0-44.358 3.041-44.358 24.079v12.675h23.066v-7.35c0-8.367 14.954-9.888 21.038-9.888 20.025 0 28.391 8.113 28.391 30.671v1.267h-5.579c-21.546 0-77.308 2.533-77.308 43.854zm24.837-1.267c0-23.575 33.459-24.587 51.967-24.587h6.333v4.308c0 19.008-13.433 40.812-34.221 40.812-16.22 0-24.079-10.141-24.079-20.533zm107.438-26.871c0 39.8 21.8 67.171 56.529 67.171 31.429 0 42.075-23.321 42.075-23.321h.504s-.25 2.792-.25 6.592c0 8.621 4.559 13.687 15.713 13.687h15.158v-21.033H739.9c-3.546 0-5.579-1.779-5.579-5.579V67.929c0-11.408-4.813-16.225-16.221-16.225h-18.717v21.042h4.775c3.55 0 5.575 1.775 5.575 5.575v32.192c0 4.82.509 8.62.509 8.62h-.509s-9.883-19.77-39.541-19.77c-33.967 0-58.046 26.358-58.046 67.17zm61.341 45.88c-21.291 0-36.245-17.996-36.245-45.88 0-29.15 16.729-45.879 36.754-45.879 24.587 0 36.5 22.813 36.5 45.625 0 32.7-17.996 46.134-37.009 46.134zm86.146-45.88c0 38.025 27.629 67.171 68.188 67.171 30.417 0 49.429-18.758 49.429-18.758l-10.65-17.488s-15.458 14.955-37.512 14.955c-22.813 0-42.584-15.459-44.105-42.838h93.534s.758-6.842.758-10.138c0-33.208-19.267-60.074-55.258-60.074-36.5 0-64.384 26.358-64.384 67.17zm26.363-14.958c3.804-21.288 19.008-32.696 37.767-32.696 15.97 0 29.404 11.408 30.166 32.696h-67.933zm123.167 79.087h24.591v-60.075c0-6.337.504-12.166 2.279-17.237 5.067-18.504 20.788-31.429 40.559-31.429 20.533 0 24.078 14.196 24.078 32.191v60.33c0 11.404 4.82 16.22 16.23 16.22h15.91v-21.033h-1.98c-3.54 0-5.57-1.779-5.57-5.579v-55.512c0-32.7-13.69-49.175-44.106-49.175-27.883 0-43.092 18.249-48.162 29.404h-.505s.505-3.296.505-7.355v-4.816c0-9.379-5.321-14.192-16.221-14.192h-17.963v21.038h4.779c3.55 0 5.576 1.775 5.576 5.575v101.645zm145.497 0H1152c11.4 0 16.22-4.816 16.22-16.22v-19.013h-22.3v8.621c0 3.546-2.04 5.579-5.58 5.579h-41.07c-8.36 0-12.42.504-12.42.504v-.504s5.32-5.329 10.65-11.662l65.9-81.371v-14.192h-91.76c-11.4 0-16.22 4.813-16.22 16.221v19.013h22.56v-8.621c0-3.546 2.03-5.575 5.57-5.575h34.99c8.36 0 12.42-.509 12.42-.509v.509s-5.07 5.071-10.65 11.912l-65.65 81.117v14.191zm129.02-35.991c0 25.6 21.55 39.033 43.6 39.033 30.67 0 40.81-25.346 40.81-25.346h.51s-.51 3.296-.51 7.604c0 9.125 4.56 14.7 15.97 14.7h14.65v-21.033h-1.98c-3.55 0-5.58-1.779-5.58-5.579v-54.5c0-28.387-11.15-50.187-52.72-50.187-12.42 0-44.36 3.041-44.36 24.079v12.675h23.07v-7.35c0-8.367 14.96-9.888 21.04-9.888 20.02 0 28.39 8.113 28.39 30.671v1.267h-5.58c-21.54 0-77.31 2.533-77.31 43.854zm24.84-1.267c0-23.575 33.46-24.587 51.97-24.587h6.33v4.308c0 19.008-13.43 40.812-34.22 40.812-16.22 0-24.08-10.141-24.08-20.533zM176.496 215.354V2.787h-31.183v220.205a611.848 611.848 0 0 0 31.183-7.638zM123.675 227.346V114.271H92.492v118.008c10.571-1.437 20.987-3.066 31.183-4.933zM229.312 197.992V52.558h-31.183v156.405c10.754-3.409 21.167-7.067 31.183-10.971zM70.858 234.904v-68.079H39.675V237.5a744.56 744.56 0 0 0 31.183-2.596zM300.35 139.667c0 52.721 37.263 94.037 90.746 94.037 45.121 0 70.471-29.908 70.471-29.908l-13.688-18.25s-21.041 24.333-56.529 24.333c-36.5 0-64.637-31.179-64.637-70.212 0-40.304 27.883-67.429 63.879-67.429 17.995 0 43.345 7.604 43.345 22.558v10.141h23.321V87.446c0-28.642-43.095-38.779-67.175-38.779-51.204 0-89.733 39.287-89.733 91zM53.325.442c.225 0 .421.029.654.029.271-.004.508-.034.783-.034 29.451 0 53.321 23.621 53.321 52.759 0 8.846-2.004 15.441-6.104 24.479-4.096 9.025-47.829 71.629-47.933 71.775l-.009.017S10.204 86.717 6.104 77.679C2.004 68.646 0 62.046 0 53.204 0 24.067 23.871.442 53.325.442zm.717 77.904c14.729 0 26.662-11.879 26.662-26.529 0-14.659-11.933-26.534-26.662-26.534-14.725 0-26.671 11.875-26.671 26.534 0 14.65 11.946 26.529 26.671 26.529z" style="fill:#fff;fill-rule:nonzero"/></svg>