<?xml version="1.0" encoding="UTF-8"?>
<svg width="2050px" height="2050px" viewBox="0 0 2050 2050" version="1.1" xmlns="http://www.w3.org/2000/svg" xmlns:xlink="http://www.w3.org/1999/xlink">
    <title>Circles</title>
    <defs>
        <polygon id="path-1" points="0 0.608433636 19.7582857 0.608433636 19.7582857 20.8519882 0 20.8519882"></polygon>
    </defs>
    <g id="Circles" stroke="none" stroke-width="1" fill="none" fill-rule="evenodd">
        <g id="Group" transform="translate(291.000000, 27.000000)"></g>
        <g id="circles--lower" transform="translate(510.000000, 120.000000)">
            <path d="M301,1723.49927 C301,1729.85173 295.850593,1735 289.5,1735 C283.149407,1735 278,1729.85173 278,1723.49927 C278,1717.14827 283.149407,1712 289.5,1712 C295.850593,1712 301,1717.14827 301,1723.49927" id="Fill-1" fill="#DDDDDD"></path>
            <path d="M1125,684.000759 C1125,700.568818 1111.56882,714 1095.00076,714 C1078.43118,714 1065,700.568818 1065,684.000759 C1065,667.431182 1078.43118,654 1095.00076,654 C1111.56882,654 1125,667.431182 1125,684.000759" id="Fill-3" fill="#DDDDDD"></path>
            <path d="M1160,684 C1160,719.346299 1131.3463,748 1096,748 C1060.6537,748 1032,719.346299 1032,684 C1032,648.653701 1060.6537,620 1096,620 C1131.3463,620 1160,648.653701 1160,684 Z" id="Stroke-5" stroke="#DDDDDD"></path>
            <path d="M1067,1580 C1067,1596.01727 1054.01488,1609 1038,1609 C1021.98358,1609 1009,1596.01727 1009,1580 C1009,1563.98273 1021.98358,1551 1038,1551 C1054.01488,1551 1067,1563.98273 1067,1580" id="Fill-7" fill="#DDDDDD"></path>
            <path d="M482,189 C482,193.971385 477.971385,198 473,198 C468.030148,198 464,193.971385 464,189 C464,184.028615 468.030148,180 473,180 C477.971385,180 482,184.028615 482,189" id="Fill-9" fill="#DDDDDD"></path>
            <path d="M1240,1436.5 C1240,1447.27047 1231.26926,1456 1220.50078,1456 C1209.73074,1456 1201,1447.27047 1201,1436.5 C1201,1425.72953 1209.73074,1417 1220.50078,1417 C1231.26926,1417 1240,1425.72953 1240,1436.5" id="Fill-11" fill="#DDDDDD"></path>
            <path d="M377,1824.5 C377,1835.27047 368.268912,1844 357.5,1844 C346.729534,1844 338,1835.27047 338,1824.5 C338,1813.72953 346.729534,1805 357.5,1805 C368.268912,1805 377,1813.72953 377,1824.5" id="Fill-13" fill="#FEFEFE"></path>
            <path d="M377,1824.5 C377,1835.27047 368.268912,1844 357.5,1844 C346.729534,1844 338,1835.27047 338,1824.5 C338,1813.72953 346.729534,1805 357.5,1805 C368.268912,1805 377,1813.72953 377,1824.5 Z" id="Stroke-15" stroke="#DDDDDD" stroke-width="6"></path>
            <path d="M391,22.5 C391,33.2689119 382.268912,42 371.5,42 C360.729534,42 352,33.2689119 352,22.5 C352,11.7295337 360.729534,3 371.5,3 C382.268912,3 391,11.7295337 391,22.5" id="Fill-17" fill="#FEFEFE"></path>
            <path d="M391,22.5 C391,33.2689119 382.268912,42 371.5,42 C360.729534,42 352,33.2689119 352,22.5 C352,11.7295337 360.729534,3 371.5,3 C382.268912,3 391,11.7295337 391,22.5 Z" id="Stroke-19" stroke="#DDDDDD" stroke-width="6"></path>
            <path d="M1450,901.5 C1450,912.268912 1441.27047,921 1430.5,921 C1419.72953,921 1411,912.268912 1411,901.5 C1411,890.729534 1419.72953,882 1430.5,882 C1441.27047,882 1450,890.729534 1450,901.5" id="Fill-21" fill="#FEFEFE"></path>
            <path d="M1450,901.5 C1450,912.268912 1441.27047,921 1430.5,921 C1419.72953,921 1411,912.268912 1411,901.5 C1411,890.729534 1419.72953,882 1430.5,882 C1441.27047,882 1450,890.729534 1450,901.5 Z" id="Stroke-23" stroke="#DDDDDD" stroke-width="6"></path>
            <path d="M1458,581 C1458,585.971599 1453.97044,590 1449.00075,590 C1444.02807,590 1440,585.971599 1440,581 C1440,576.028401 1444.02807,572 1449.00075,572 C1453.97044,572 1458,576.028401 1458,581" id="Fill-25" fill="#FEFEFE"></path>
            <path d="M1458,581 C1458,585.971599 1453.97044,590 1449.00075,590 C1444.02807,590 1440,585.971599 1440,581 C1440,576.028401 1444.02807,572 1449.00075,572 C1453.97044,572 1458,576.028401 1458,581 Z" id="Stroke-27" stroke="#DDDDDD" stroke-width="6"></path>
            <path d="M1034,164 C1034,179.463936 1021.46394,192 1006.00155,192 C990.536064,192 978,179.463936 978,164 C978,148.536064 990.536064,136 1006.00155,136 C1021.46394,136 1034,148.536064 1034,164" id="Fill-29" fill="#DDDDDD"></path>
            <path d="M1240,1147 C1240,1159.14965 1230.15156,1169 1218.00078,1169 C1205.85,1169 1196,1159.14965 1196,1147 C1196,1134.84879 1205.85,1125 1218.00078,1125 C1230.15156,1125 1240,1134.84879 1240,1147" id="Fill-31" fill="#DDDDDD"></path>
            <path d="M1263,1147.50077 C1263,1172.62836 1242.62767,1193 1217.49923,1193 C1192.3708,1193 1172,1172.62836 1172,1147.50077 C1172,1122.37164 1192.3708,1102 1217.49923,1102 C1242.62767,1102 1263,1122.37164 1263,1147.50077 Z" id="Stroke-33" stroke="#DDDDDD"></path>
            <path d="M1424,1194.00077 C1424,1203.38852 1416.38972,1211 1407,1211 C1397.61182,1211 1390,1203.38852 1390,1194.00077 C1390,1184.61303 1397.61182,1177 1407,1177 C1416.38972,1177 1424,1184.61303 1424,1194.00077" id="Fill-35" fill="#DDDDDD"></path>
            <path d="M677,1260.5 C677,1265.19447 673.194817,1269 668.500776,1269 C663.805183,1269 660,1265.19447 660,1260.5 C660,1255.80553 663.805183,1252 668.500776,1252 C673.194817,1252 677,1255.80553 677,1260.5" id="Fill-37" fill="#DDDDDD"></path>
            <path d="M694,18 C694,27.939775 686.164873,36 676.499225,36 C666.835127,36 659,27.939775 659,18 C659,8.05863077 666.835127,0 676.499225,0 C686.164873,0 694,8.05863077 694,18" id="Fill-39" fill="#DDDDDD"></path>
            <path d="M1248,431 C1248,440.941369 1240.16487,449 1230.49923,449 C1220.83513,449 1213,440.941369 1213,431 C1213,421.060225 1220.83513,413 1230.49923,413 C1240.16487,413 1248,421.060225 1248,431" id="Fill-41" fill="#DDDDDD"></path>
            <path d="M1383,810 C1383,819.939775 1375.16487,828 1365.50077,828 C1355.83513,828 1348,819.939775 1348,810 C1348,800.058631 1355.83513,792 1365.50077,792 C1375.16487,792 1383,800.058631 1383,810" id="Fill-43" fill="#DDDDDD"></path>
            <path d="M1084,438.000771 C1084,454.017617 1071.01642,467 1055.00154,467 C1038.98358,467 1026,454.017617 1026,438.000771 C1026,421.983925 1038.98358,409 1055.00154,409 C1071.01642,409 1084,421.983925 1084,438.000771" id="Fill-45" fill="#DDDDDD"></path>
            <path d="M413,1664.99923 C413,1681.01762 400.016075,1694 384.000771,1694 C367.983925,1694 355,1681.01762 355,1664.99923 C355,1648.98238 367.983925,1636 384.000771,1636 C400.016075,1636 413,1648.98238 413,1664.99923" id="Fill-47" fill="#DDDDDD"></path>
            <path d="M768,1632.5 C768,1643.27047 759.270466,1652 748.5,1652 C737.731088,1652 729,1643.27047 729,1632.5 C729,1621.72953 737.731088,1613 748.5,1613 C759.270466,1613 768,1621.72953 768,1632.5" id="Fill-49" fill="#FEFEFE"></path>
            <path d="M768,1632.5 C768,1643.27047 759.270466,1652 748.5,1652 C737.731088,1652 729,1643.27047 729,1632.5 C729,1621.72953 737.731088,1613 748.5,1613 C759.270466,1613 768,1621.72953 768,1632.5 Z" id="Stroke-51" stroke="#DDDDDD" stroke-width="6"></path>
            <path d="M684,1565.49922 C684,1580.13512 672.134772,1592 657.5,1592 C642.865228,1592 631,1580.13512 631,1565.49922 C631,1550.86331 642.865228,1539 657.5,1539 C672.134772,1539 684,1550.86331 684,1565.49922" id="Fill-53" fill="#DDDDDD"></path>
            <path d="M890,1130.00077 C890,1146.01762 877.016075,1159 861.000771,1159 C844.983925,1159 832,1146.01762 832,1130.00077 C832,1113.98392 844.983925,1101 861.000771,1101 C877.016075,1101 890,1113.98392 890,1130.00077" id="Fill-55" fill="#DDDDDD"></path>
            <g id="Group-59" transform="translate(0.000000, 1611.000000)">
                <mask id="mask-2" fill="white">
                    <use xlink:href="#path-1"></use>
                </mask>
                <g id="Clip-58"></g>
                <path d="M19.7582857,10.7309427 C19.7582857,16.32057 15.3354286,20.8519882 9.87828571,20.8519882 C4.42257143,20.8519882 -0.000285714286,16.32057 -0.000285714286,10.7309427 C-0.000285714286,5.14131545 4.42257143,0.608433636 9.87828571,0.608433636 C15.3354286,0.608433636 19.7582857,5.14131545 19.7582857,10.7309427" id="Fill-57" fill="#DDDDDD" mask="url(#mask-2)"></path>
            </g>
            <path d="M1227,1627 C1227,1629.21022 1225.20843,1631 1223.00073,1631 C1220.79011,1631 1219,1629.21022 1219,1627 C1219,1624.79124 1220.79011,1623 1223.00073,1623 C1225.20843,1623 1227,1624.79124 1227,1627" id="Fill-60" fill="#DDDDDD"></path>
        </g>
    </g>
</svg>