<?xml version="1.0" encoding="UTF-8"?>
<svg width="2050px" height="2050px" viewBox="0 0 2050 2050" version="1.1" xmlns="http://www.w3.org/2000/svg" xmlns:xlink="http://www.w3.org/1999/xlink">
    <title>Circles</title>
    <defs>
        <polygon id="path-1" points="0.00176674058 0.990986337 47.8459885 0.990986337 47.8459885 49.8139535 0.00176674058 49.8139535"></polygon>
        <polygon id="path-3" points="0.126442361 0.549347826 34.1547549 0.549347826 34.1547549 34.9126522 0.126442361 34.9126522"></polygon>
    </defs>
    <g id="Circles" stroke="none" stroke-width="1" fill="none" fill-rule="evenodd">
        <g id="Group" transform="translate(291.000000, 27.000000)"></g>
        <g id="circles--upper" transform="translate(267.000000, 1.000000)">
            <path d="M1481,316.000765 C1481,329.25613 1470.2546,340 1456.99923,340 C1443.7454,340 1433,329.25613 1433,316.000765 C1433,302.745401 1443.7454,292 1456.99923,292 C1470.2546,292 1481,302.745401 1481,316.000765" id="Fill-1" fill="#BCBCBB"></path>
            <path d="M48,339.999235 C48,353.254599 37.2545994,364 23.9992348,364 C10.7454006,364 0,353.254599 0,339.999235 C0,326.74387 10.7454006,316 23.9992348,316 C37.2545994,316 48,326.74387 48,339.999235" id="Fill-3" fill="#BCBCBB"></path>
            <path d="M469,75.0007652 C469,88.2561298 458.254599,99 444.999235,99 C431.745401,99 421,88.2561298 421,75.0007652 C421,61.7454006 431.745401,51 444.999235,51 C458.254599,51 469,61.7454006 469,75.0007652" id="Fill-5" fill="#BCBCBB"></path>
            <path d="M469,75.0007652 C469,88.2561298 458.254599,99 444.999235,99 C431.745401,99 421,88.2561298 421,75.0007652 C421,61.7454006 431.745401,51 444.999235,51 C458.254599,51 469,61.7454006 469,75.0007652 Z" id="Stroke-7" stroke="#BCBCBB"></path>
            <path d="M269,272 C269,281.389071 261.389071,289 252,289 C242.612435,289 235,281.389071 235,272 C235,262.610929 242.612435,255 252,255 C261.389071,255 269,262.610929 269,272" id="Fill-9" fill="#BCBCBB"></path>
            <path d="M1559,621.999235 C1559,635.254599 1548.25426,646 1535,646 C1521.74421,646 1511,635.254599 1511,621.999235 C1511,608.74387 1521.74421,598 1535,598 C1548.25426,598 1559,608.74387 1559,621.999235" id="Fill-11" fill="#BCBCBB"></path>
            <path d="M1270,1488.00077 C1270,1501.2546 1259.2546,1512 1245.99923,1512 C1232.74387,1512 1222,1501.2546 1222,1488.00077 C1222,1474.7454 1232.74387,1464 1245.99923,1464 C1259.2546,1464 1270,1474.7454 1270,1488.00077" id="Fill-13" fill="#BCBCBB"></path>
            <path d="M1146,77 C1146,84.7313211 1139.73248,91 1132.00074,91 C1124.26901,91 1118,84.7313211 1118,77 C1118,69.2686789 1124.26901,63 1132.00074,63 C1139.73248,63 1146,69.2686789 1146,77" id="Fill-15" fill="#BCBCBB"></path>
            <path d="M1163,76 C1163,92.5691584 1149.56764,106 1133,106 C1116.43236,106 1103,92.5691584 1103,76 C1103,59.4323599 1116.43236,46 1133,46 C1149.56764,46 1163,59.4323599 1163,76 Z" id="Stroke-17" stroke="#BCBCBB"></path>
            <path d="M531,1631.99923 C531,1645.2546 520.254599,1656 506.999235,1656 C493.745401,1656 483,1645.2546 483,1631.99923 C483,1618.7454 493.745401,1608 506.999235,1608 C520.254599,1608 531,1618.7454 531,1631.99923" id="Fill-19" fill="#BCBCBB"></path>
            <path d="M976,1905.5 C976,1916.27047 967.268912,1925 956.5,1925 C945.729534,1925 937,1916.27047 937,1905.5 C937,1894.72953 945.729534,1886 956.5,1886 C967.268912,1886 976,1894.72953 976,1905.5" id="Fill-21" fill="#FEFEFE"></path>
            <path d="M976,1905.5 C976,1916.27047 967.268912,1925 956.5,1925 C945.729534,1925 937,1916.27047 937,1905.5 C937,1894.72953 945.729534,1886 956.5,1886 C967.268912,1886 976,1894.72953 976,1905.5 Z" id="Stroke-23" stroke="#BCBCBB" stroke-width="6"></path>
            <path d="M315,1903.5 C315,1914.27047 306.268912,1923 295.5,1923 C284.729534,1923 276,1914.27047 276,1903.5 C276,1892.72953 284.729534,1884 295.5,1884 C306.268912,1884 315,1892.72953 315,1903.5" id="Fill-25" fill="#FEFEFE"></path>
            <path d="M315,1903.5 C315,1914.27047 306.268912,1923 295.5,1923 C284.729534,1923 276,1914.27047 276,1903.5 C276,1892.72953 284.729534,1884 295.5,1884 C306.268912,1884 315,1892.72953 315,1903.5 Z" id="Stroke-27" stroke="#BCBCBB" stroke-width="6"></path>
            <path d="M1664,1511 C1664,1527.56975 1650.56737,1541 1634,1541 C1617.43263,1541 1604,1527.56975 1604,1511 C1604,1494.43025 1617.43263,1481 1634,1481 C1650.56737,1481 1664,1494.43025 1664,1511" id="Fill-29" fill="#BCBCBB"></path>
            <path d="M1697,1511 C1697,1545.79425 1668.79425,1574 1633.99847,1574 C1599.20575,1574 1571,1545.79425 1571,1511 C1571,1476.20729 1599.20575,1448 1633.99847,1448 C1668.79425,1448 1697,1476.20729 1697,1511 Z" id="Stroke-31" stroke="#BCBCBB"></path>
            <path d="M1783,1103.49923 C1783,1113.71582 1774.71736,1122 1764.50077,1122 C1754.28418,1122 1746,1113.71582 1746,1103.49923 C1746,1093.28264 1754.28418,1085 1764.50077,1085 C1774.71736,1085 1783,1093.28264 1783,1103.49923" id="Fill-33" fill="#FEFEFE"></path>
            <path d="M1783,1103.49923 C1783,1113.71582 1774.71736,1122 1764.50077,1122 C1754.28418,1122 1746,1113.71582 1746,1103.49923 C1746,1093.28264 1754.28418,1085 1764.50077,1085 C1774.71736,1085 1783,1093.28264 1783,1103.49923 Z" id="Stroke-35" stroke="#BCBCBB" stroke-width="6"></path>
            <g id="Group-39" transform="translate(639.000000, 2000.000000)">
                <mask id="mask-2" fill="white">
                    <use xlink:href="#path-1"></use>
                </mask>
                <g id="Clip-38"></g>
                <path d="M47.8459885,25.4029369 C47.8459885,38.8838381 37.1354608,49.8148875 23.9246404,49.8148875 C10.7122945,49.8148875 0.00176674058,38.8838381 0.00176674058,25.4029369 C0.00176674058,11.9220358 10.7122945,0.990986337 23.9246404,0.990986337 C37.1354608,0.990986337 47.8459885,11.9220358 47.8459885,25.4029369" id="Fill-37" fill="#BCBCBB" mask="url(#mask-2)"></path>
            </g>
            <path d="M1200,560 C1200,569.389071 1192.38757,577 1183,577 C1173.61243,577 1166,569.389071 1166,560 C1166,550.612435 1173.61243,543 1183,543 C1192.38757,543 1200,550.612435 1200,560" id="Fill-40" fill="#BCBCBB"></path>
            <path d="M1258,1900.5 C1258,1911.27047 1249.27047,1920 1238.5,1920 C1227.72953,1920 1219,1911.27047 1219,1900.5 C1219,1889.72953 1227.72953,1881 1238.5,1881 C1249.27047,1881 1258,1889.72953 1258,1900.5" id="Fill-42" fill="#FEFEFE"></path>
            <path d="M1258,1900.5 C1258,1911.27047 1249.27047,1920 1238.5,1920 C1227.72953,1920 1219,1911.27047 1219,1900.5 C1219,1889.72953 1227.72953,1881 1238.5,1881 C1249.27047,1881 1258,1889.72953 1258,1900.5 Z" id="Stroke-44" stroke="#BCBCBB" stroke-width="6"></path>
            <g id="Group-48" transform="translate(784.000000, 0.000000)">
                <mask id="mask-4" fill="white">
                    <use xlink:href="#path-3"></use>
                </mask>
                <g id="Clip-47"></g>
                <path d="M34.1547549,17.7306957 C34.1547549,27.2202609 26.5371507,34.9126522 17.1398451,34.9126522 C7.74404653,34.9126522 0.126442361,27.2202609 0.126442361,17.7306957 C0.126442361,8.24265217 7.74404653,0.54873913 17.1398451,0.54873913 C26.5371507,0.54873913 34.1547549,8.24265217 34.1547549,17.7306957" id="Fill-46" fill="#BCBCBB" mask="url(#mask-4)"></path>
            </g>
            <path d="M957,1765.5 C957,1776.27047 948.268912,1785 937.5,1785 C926.729534,1785 918,1776.27047 918,1765.5 C918,1754.72953 926.729534,1746 937.5,1746 C948.268912,1746 957,1754.72953 957,1765.5" id="Fill-49" fill="#FEFEFE"></path>
            <path d="M957,1765.5 C957,1776.27047 948.268912,1785 937.5,1785 C926.729534,1785 918,1776.27047 918,1765.5 C918,1754.72953 926.729534,1746 937.5,1746 C948.268912,1746 957,1754.72953 957,1765.5 Z" id="Stroke-51" stroke="#BCBCBB" stroke-width="6"></path>
            <path d="M1267,1420.5 C1267,1431.27047 1258.26926,1440 1247.49922,1440 C1236.73074,1440 1228,1431.27047 1228,1420.5 C1228,1409.72953 1236.73074,1401 1247.49922,1401 C1258.26926,1401 1267,1409.72953 1267,1420.5" id="Fill-53" fill="#FEFEFE"></path>
            <path d="M1267,1420.5 C1267,1431.27047 1258.26926,1440 1247.49922,1440 C1236.73074,1440 1228,1431.27047 1228,1420.5 C1228,1409.72953 1236.73074,1401 1247.49922,1401 C1258.26926,1401 1267,1409.72953 1267,1420.5 Z" id="Stroke-55" stroke="#BCBCBB" stroke-width="6"></path>
            <path d="M334,293.5 C334,304.270466 325.268912,313 314.5,313 C303.729534,313 295,304.270466 295,293.5 C295,282.731088 303.729534,274 314.5,274 C325.268912,274 334,282.731088 334,293.5" id="Fill-57" fill="#FEFEFE"></path>
            <path d="M334,293.5 C334,304.270466 325.268912,313 314.5,313 C303.729534,313 295,304.270466 295,293.5 C295,282.731088 303.729534,274 314.5,274 C325.268912,274 334,282.731088 334,293.5 Z" id="Stroke-59" stroke="#BCBCBB" stroke-width="6"></path>
            <path d="M711,134 C711,143.389071 703.388734,151 693.999247,151 C684.611266,151 677,143.389071 677,134 C677,124.610929 684.611266,117 693.999247,117 C703.388734,117 711,124.610929 711,134" id="Fill-61" fill="#BCBCBB"></path>
            <path d="M1332,246 C1332,255.387565 1324.38873,263 1314.99925,263 C1305.61127,263 1298,255.387565 1298,246 C1298,236.610929 1305.61127,229 1314.99925,229 C1324.38873,229 1332,236.610929 1332,246" id="Fill-63" fill="#BCBCBB"></path>
            <path d="M1425,930 C1425,939.387565 1417.38873,947 1407.99925,947 C1398.61127,947 1391,939.387565 1391,930 C1391,920.610929 1398.61127,913 1407.99925,913 C1417.38873,913 1425,920.610929 1425,930" id="Fill-65" fill="#BCBCBB"></path>
            <path d="M1607,1353.00075 C1607,1362.38873 1599.38873,1370 1589.99925,1370 C1580.61127,1370 1573,1362.38873 1573,1353.00075 C1573,1343.61127 1580.61127,1336 1589.99925,1336 C1599.38873,1336 1607,1343.61127 1607,1353.00075" id="Fill-67" fill="#BCBCBB"></path>
        </g>
    </g>
</svg>