<svg width="445" height="276" fill="none" xmlns="http://www.w3.org/2000/svg"><g clip-path="url(#Frame 4__a)" opacity=".5"><path d="m374.946-362.714-93.09 63.031-93.85 70.831-8.306 161.03L99.505 55.213l77.46 40.641 85.341 80.124 107.166 43.459 134.722 11.786 101.405-31.28 41.734-42.912 48.969-20.188" stroke="#DEDEDE" stroke-width=".871" stroke-miterlimit="10"/><path d="m290.125-331.004-79.273 87.479-44.325 245.12-64.751-222.23L179.7-67.822l2.883 139.929-85.053-20.86 72.608-45.439m76.543-14.641L171.107 3.254m328.517 227-66.837-57.34m67.875 58.536-83.203 38.509m-76.877-57.201L229.61 166.963l46.578 61.687 91.662-7.8-24.584-7.647" stroke="#DEDEDE" stroke-width=".871" stroke-miterlimit="10"/><path d="m275.381 227.723-14.457-53.043 43.996-40.27" stroke="#DEDEDE" stroke-width=".871" stroke-miterlimit="10"/><path d="m339.15 214.005-63.769 13.718" stroke="#BDBCBC" stroke-width=".871" stroke-miterlimit="10"/><path d="m229.61 166.963-.454-98.351 5.581-94.125m27.569 201.491L247.868-9.866" stroke="#DEDEDE" stroke-width=".871" stroke-miterlimit="10"/><path d="m182.055 150.2-5.09-54.346-6.048-94.101 8.783-69.575 151.922 2.901" stroke="#DEDEDE" stroke-width=".871" stroke-miterlimit="10"/><path d="m314.311 1.1-85.155 67.512-44.228 5.487-7.555 23.503L247.868-9.866m15.151 185.218 77.563 37.406-33.419-81.05 60.821 86.908 125.086 30.547M307.164 131.708l-78.008-63.096M171.107 3.254 80.751-32.284 179.7-67.822" stroke="#DEDEDE" stroke-width=".871" stroke-miterlimit="10"/><path d="m696.302 136.843-43.305 64.213-86.026 51.259-149.512 17.644-142.078-42.236-93.326-77.523-81.15-97.309-20.103-85.42-29.251-204.74L175.38-363.558 332.109-390.8M100.905 52.891l-115-62.077" stroke="#BDBCBC" stroke-width=".871" stroke-miterlimit="10"/><path d="m337.838-289.51-48.737-42.667-62.448-14.756-111.839 54.568 64.131 226.54 55.791 40.312 98.648-41.707L229.156 68.612 349.838 150.2l148.553 78.64 96.408-94.032 53.489 23.359L701.28 53.851l-4.978 82.992" stroke="#BDBCBC" stroke-width=".871" stroke-miterlimit="10"/><path d="m649.192 157.379 4.908 42.717-47.912-1.714-173.401-25.468-64.803 45.702 46.411 49.234-73.813-55.092 7.175-62.526-115.282 16.282-48.154-18.293-1.738-76.115 54.276-98.518-45.747-205.147-75.241-62.85-14.698 74.974" stroke="#BDBCBC" stroke-width=".871" stroke-miterlimit="10"/><path d="M225.161-234.108 247.868-9.866l62.549 141.439 5.632-133.315-64.075-9.213" stroke="#BDBCBC" stroke-width=".871" stroke-miterlimit="10"/><path d="m314.311 1.1 67.379 66.19 91.996 11.05 33.956 80.275L381.69 67.291l-73.187 65.951 41.335 16.958" stroke="#BDBCBC" stroke-width=".871" stroke-miterlimit="10"/><path d="M349.838 159.358a9.159 9.159 0 1 0 0-18.316 9.159 9.159 0 1 0 0 18.316Z" fill="#DEDEDE"/><path d="M349.838 169.429c10.621 0 19.231-8.609 19.231-19.229s-8.61-19.229-19.231-19.229c-10.621 0-19.231 8.609-19.231 19.229s8.61 19.229 19.231 19.229Z" stroke="#DEDEDE" stroke-width=".871" stroke-miterlimit="10"/><path d="M171.107 9.071a5.817 5.817 0 1 0 0-11.634 5.817 5.817 0 0 0 0 11.634Z" fill="#DEDEDE"/><path d="M229.61 172.78a5.817 5.817 0 1 0 0-11.633 5.817 5.817 0 0 0 0 11.633Zm45.771 57.733a2.79 2.79 0 1 0 0-5.58 2.79 2.79 0 0 0 0 5.58Z" fill="#fff" stroke="#DEDEDE" stroke-width="5.225" stroke-miterlimit="10"/><path d="M229.156 75.151a6.54 6.54 0 1 0 0-13.079 6.54 6.54 0 0 0 0 13.08Z" fill="#DEDEDE"/><path d="M229.156 82.349c7.587 0 13.738-6.15 13.738-13.737s-6.151-13.737-13.738-13.737-13.738 6.15-13.738 13.737 6.151 13.737 13.738 13.737Z" stroke="#DEDEDE" stroke-width=".871" stroke-miterlimit="10"/><path d="M176.966 100.943a5.09 5.09 0 1 0 0-10.178 5.09 5.09 0 0 0 0 10.178ZM369.342 224.78a5.232 5.232 0 1 0 0-10.465 5.233 5.233 0 0 0 0 10.465Zm-106.323-44.195a5.232 5.232 0 1 0 .001-10.465 5.232 5.232 0 0 0-.001 10.465Zm144.655 26.616a8.722 8.722 0 1 0 0-17.444 8.722 8.722 0 1 0 0 17.444ZM314.311 9.822a8.723 8.723 0 1 0 0-17.446 8.723 8.723 0 0 0 0 17.446Z" fill="#DEDEDE"/><path d="M416.397 276.007a7.268 7.268 0 1 0 0-14.536 7.268 7.268 0 0 0 0 14.536Zm-75.815-55.982a7.267 7.267 0 1 0 0-14.534 7.268 7.268 0 1 0 0 14.534ZM99.802 62.92a9.07 9.07 0 1 0 0-18.14 9.07 9.07 0 1 0 0 18.14Z" fill="#BDBCBC"/><path d="M99.802 72.899c10.521 0 19.05-8.528 19.05-19.048 0-10.52-8.529-19.049-19.05-19.049s-19.05 8.529-19.05 19.049 8.529 19.048 19.05 19.048Z" stroke="#BDBCBC" stroke-width=".871" stroke-miterlimit="10"/><path d="M182.055 155.78a5.58 5.58 0 1 0 0-11.16 5.58 5.58 0 1 0 0 11.16Z" fill="#fff" stroke="#BDBCBC" stroke-width="5.225" stroke-miterlimit="10"/><path d="M432.787 178.147a5.233 5.233 0 1 0 0-10.466 5.233 5.233 0 0 0 0 10.466Z" fill="#BDBCBC"/><path d="M381.69 73.108a5.816 5.816 0 1 0 .001-11.633 5.816 5.816 0 0 0-.001 11.633Z" fill="#fff" stroke="#BDBCBC" stroke-width="5.225" stroke-miterlimit="10"/><path d="M308.503 138.474a5.232 5.232 0 1 0 0-10.465 5.233 5.233 0 0 0 0 10.465ZM183.455 78.34a5.233 5.233 0 1 0 0-10.466 5.233 5.233 0 0 0 0 10.466Z" fill="#BDBCBC"/></g><defs><clipPath id="Frame 4__a"><path fill="#fff" d="M0 0h445v276H0z"/></clipPath></defs></svg>
