<svg xmlns="http://www.w3.org/2000/svg" viewBox="0 0 130.7 119.4"><defs><style>.a{fill:#97bce5;}.b{fill:#0075bf;}.c{fill:#c6c6c6;}</style></defs><path class="a" d="M39.79,87.84,8.39,82.93l8.76-27.78L0,26,38.52.07l13.09,14.2L93.16,0,102,8.65l4.72,4.61,12.86,12.65-2.87,11.44A49.57,49.57,0,0,0,110,33.13l1.52-4.77-10-9.83-4.72-4.61-3.94-3.87L91.25,8.48,49.45,22.81,37.39,9.72,9.87,28.27l15.3,26L18,77l20.39,3.19a50.43,50.43,0,0,0,1.4,7.68"/><path class="a" d="M86.24,119.4A44.7,44.7,0,0,1,46,94L45,91.73l44.68-12,0-49.2,2.33.3a44.46,44.46,0,0,1-5.79,88.55"/><path class="b" d="M43.88,88.67l-.54-2a45.08,45.08,0,0,1-1.56-11.75A44.05,44.05,0,0,1,46,56.08l1-2,40,23.09Z"/><path class="c" d="M86.46,73.12,48.55,51.24l1.3-1.85A44.12,44.12,0,0,1,84.31,30.52l2.15-.09Z"/></svg>