<?xml version="1.0" encoding="UTF-8"?>
<svg width="2050px" height="2050px" viewBox="0 0 2050 2050" version="1.1" xmlns="http://www.w3.org/2000/svg" xmlns:xlink="http://www.w3.org/1999/xlink">
    <title>Circles</title>
    <g id="Circles" stroke="none" stroke-width="1" fill="none" fill-rule="evenodd">
        <g id="Group" transform="translate(291.000000, 27.000000)" stroke="#BCBCBB" stroke-width="2">
            <g id="lines--upper">
                <g id="Group-9">
                    <line x1="0.406999823" y1="320.55614" x2="420.140694" y2="57.3983513" id="Stroke-1"></line>
                    <polyline id="Stroke-3" points="420.140235 57.3980452 777.967678 0.248992343 1103.62728 59.1781654 1428.02467 291.209106 1668 674 1733.95006 1081.04217 1598.64292 1486.83764 1438.97399 1720.50635 1210.71863 1874.53649 635.496295 1997.20867 270.712938 1875.48089 227.567893 1720.50635"></polyline>
                    <polyline id="Stroke-5" points="488.756374 1606 476.315707 1610.80365 505.151882 1822.76347 628.746868 1994.95604 933.474391 1874.53695 1261.66759 1670.16446 1217.95302 1462.83632 881.57234 1352.73979 1436.18581 1240.52181 1312.5464 775.602775 1223.58239 266.382781 712 281 586.083116 108.440352 227.567893 253.277545 420.139928 57.3985044"></polyline>
                    <polyline id="Stroke-7" points="582.112531 108.440046 773.151233 0.247614778 888.82527 108.440046 1155.14132 539.109749 1449.72832 526.977992 1431.07403 303.112952 1505.29291 601.006809 1317.80952 780.022923 1640.44381 989.513837 1724.01127 1081.04232 1559.83119 1332.84744 1210.7197 1460.46813 964.562162 1725.86217 926.394249 1877.33464 1210.7197 1872.85755"></polyline>
                </g>
                <polyline id="Stroke-10" points="221 1712.89453 572.584015 1919 929 1877.31936 873.802854 1658.59787 488.756374 1606"></polyline>
                <polyline id="Stroke-11" points="874 1659 1218.89515 1395.97694 1370 908 1066.6786 1227.83904 1206.3143 1389.78924"></polyline>
            </g>
        </g>
    </g>
</svg>